<?xml version="1.0" encoding="utf-8"?>
<!-- Generator: Adobe Illustrator 23.0.2, SVG Export Plug-In . SVG Version: 6.00 Build 0)  -->
<svg version="1.1" id="body_1" xmlns="http://www.w3.org/2000/svg" xmlns:xlink="http://www.w3.org/1999/xlink" x="0px" y="0px"
	 viewBox="0 0 1168.55 653.62" style="enable-background:new 0 0 1168.55 653.62;" xml:space="preserve">
<style type="text/css">
	.st0{fill:#5CDB95;enable-background:new    ;}
	.st1{fill:none;stroke:#5CDB95;stroke-width:5;stroke-miterlimit:10;enable-background:new    ;}
	.st2{fill:none;stroke:#5CDB95;stroke-width:4;stroke-miterlimit:10;enable-background:new    ;}
	.st3{enable-background:new    ;}
	.st4{fill:#053865;}
	.st5{fill:none;stroke:#5CDB95;stroke-width:6;stroke-miterlimit:10;enable-background:new    ;}
	.st6{fill:#053865;enable-background:new    ;}
	.st7{fill:#FFFFFF;}
	.st8{fill:none;stroke:#053865;stroke-width:2;stroke-miterlimit:10;}
	.st9{fill:none;stroke:#053865;stroke-width:2;stroke-miterlimit:10;stroke-dasharray:5.023,5.023;}
	.st10{fill:none;stroke:#053865;stroke-width:2;stroke-miterlimit:10;stroke-dasharray:5,5;}
	.st11{fill:#606060;}
	.st12{display:none;fill:#5CDB95;enable-background:new    ;}
	.st13{display:none;fill:none;stroke:#5CDB95;stroke-width:5;stroke-miterlimit:10;enable-background:new    ;}
	.st14{display:none;fill:none;stroke:#5CDB95;stroke-width:4;stroke-miterlimit:10;enable-background:new    ;}
	.st15{display:none;enable-background:new    ;}
	.st16{display:inline;fill:#053865;}
	.st17{display:none;fill:none;stroke:#5CDB95;stroke-width:6;stroke-miterlimit:10;enable-background:new    ;}
	.st18{display:none;fill:#053865;enable-background:new    ;}
	.st19{display:none;fill:#FFFFFF;}
	.st20{font-family:'Montserrat-SemiBold';}
	.st21{font-size:24px;}
	.st22{display:inline;}
	.st23{display:none;}
	.st24{display:none;fill:none;stroke:#053865;stroke-width:2;stroke-miterlimit:10;}
	.st25{display:none;fill:none;stroke:#053865;stroke-width:2;stroke-miterlimit:10;stroke-dasharray:5,5;}
	.st26{font-size:30px;}
	.st27{display:inline;fill:#606060;}
</style>
<circle class="st0" cx="118.59" cy="200.09" r="81.93"/>
<circle class="st1" cx="118.59" cy="200.09" r="93.02"/>
<circle class="st0" cx="723.97" cy="171.83" r="54.55"/>
<circle class="st2" cx="723.97" cy="171.83" r="64.49"/>
<circle class="st2" cx="723.97" cy="493.36" r="64.49"/>
<circle class="st0" cx="1072.55" cy="230.92" r="52.64"/>
<circle class="st2" cx="1072.55" cy="230.92" r="62.05"/>
<circle class="st0" cx="1070.07" cy="429.79" r="55.12"/>
<circle class="st1" cx="1070.07" cy="429.79" r="63.57"/>
<circle class="st0" cx="723.97" cy="493.36" r="54.55"/>
<g class="st3">
	<path class="st4" d="M168.07,189.91c-0.45-0.26-1-0.27-1.46-0.02L148.24,200v-3.52c0-3.73-3.04-6.77-6.77-6.77h-3.83
		c5.18-3.32,8.62-9.13,8.62-15.73c0-3.32-0.88-6.57-2.55-9.42c-0.41-0.7-1.31-0.94-2.02-0.53c-0.7,0.41-0.94,1.31-0.53,2.02
		c1.4,2.4,2.14,5.14,2.14,7.93c0,8.68-7.06,15.73-15.73,15.73s-15.73-7.06-15.73-15.73s7.06-15.73,15.73-15.73
		c3.69,0,7.29,1.31,10.11,3.68c0.62,0.52,1.55,0.44,2.08-0.18c0.52-0.62,0.44-1.55-0.18-2.08c-3.35-2.82-7.62-4.37-12.01-4.37
		c-9.12,0-16.74,6.57-18.36,15.23c-2.48-3.01-6.24-4.94-10.45-4.94c-7.46,0-13.53,6.07-13.53,13.53c0,4.28,2,8.1,5.12,10.59
		c-3.73,0-6.76,3.04-6.76,6.77v0.24h-6l-7.1-3.36c-0.93-0.48-2.14,0.28-2.1,1.33v18.29c-0.03,1.05,1.17,1.81,2.1,1.33l7.1-3.36h6
		v23.24c0,3.73,3.04,6.77,6.77,6.77h38.37c0.81,0,1.47-0.66,1.47-1.47c0-0.81-0.66-1.47-1.47-1.47H90.36
		c-2.11,0-3.82-1.72-3.82-3.82v-37.71c0-2.11,1.72-3.82,3.82-3.82h51.11c2.11,0,3.82,1.72,3.82,3.82v37.71
		c0,2.11-1.72,3.82-3.82,3.82h-6.84c-0.81,0-1.47,0.66-1.47,1.47s0.66,1.47,1.47,1.47h6.84c3.73,0,6.77-3.04,6.77-6.77v-11.7
		l18.37,10.11c0.94,0.55,2.22-0.2,2.18-1.29v-40.13C168.79,190.66,168.52,190.18,168.07,189.91L168.07,189.91z M71.34,197.02
		l4.45,2.11v9.42l-4.45,2.11V197.02z M78.73,208v-8.33h4.86V208H78.73z M88.18,179.12c0-5.84,4.75-10.59,10.59-10.59
		c5.84,0,10.59,4.75,10.59,10.59s-4.75,10.59-10.59,10.59C92.93,189.71,88.18,184.96,88.18,179.12z M107.19,189.71
		c1.98-1.58,3.51-3.7,4.37-6.15c1.49,2.48,3.53,4.59,5.96,6.15H107.19z M165.85,228.82l-17.61-9.69v-15.76l17.61-9.69V228.82z"/>
	<path class="st4" d="M120.06,173.97c0,4.14,3.37,7.51,7.51,7.51c4.14,0,7.51-3.37,7.51-7.51s-3.37-7.51-7.51-7.51
		S120.06,169.83,120.06,173.97z M132.14,173.97c0,2.52-2.05,4.57-4.57,4.57c-2.52,0-4.57-2.05-4.57-4.57s2.05-4.57,4.57-4.57
		C130.09,169.41,132.14,171.46,132.14,173.97z"/>
	<path class="st4" d="M98.77,184.43c2.93,0,5.31-2.38,5.31-5.31s-2.38-5.31-5.31-5.31c-2.93,0-5.31,2.38-5.31,5.31
		C93.46,182.05,95.84,184.43,98.77,184.43z M98.77,176.76c1.3,0,2.36,1.06,2.36,2.36c0,1.3-1.06,2.36-2.36,2.36
		c-1.3,0-2.36-1.06-2.36-2.36C96.41,177.82,97.47,176.76,98.77,176.76z"/>
	<path class="st4" d="M133.16,219.18V203.1c0-1.9-1.54-3.44-3.44-3.44h-15.94c-0.81,0-1.47,0.66-1.47,1.47
		c0,0.81,0.66,1.47,1.47,1.47h15.94c0.27,0,0.49,0.22,0.49,0.49v16.08c0,0.27-0.22,0.49-0.49,0.49h-27.6
		c-0.27,0-0.49-0.22-0.49-0.49V203.1c0-0.27,0.22-0.49,0.49-0.49h5.77c0.81,0,1.47-0.66,1.47-1.47c0-0.81-0.66-1.47-1.47-1.47h-5.77
		c-1.9,0-3.44,1.54-3.44,3.44v16.08c0,1.9,1.54,3.44,3.44,3.44h27.6C131.61,222.62,133.16,221.07,133.16,219.18z"/>
	<path class="st4" d="M123.84,227.74c-0.81,0-1.47,0.66-1.47,1.47c0,0.81,0.66,1.47,1.47,1.47h3.68c0.81,0,1.47-0.66,1.47-1.47
		c0-0.81-0.66-1.47-1.47-1.47H123.84z"/>
	<path class="st4" d="M114.08,227.74c-0.81,0-1.47,0.66-1.47,1.47c0,0.81,0.66,1.47,1.47,1.47h3.68c0.81,0,1.47-0.66,1.47-1.47
		c0-0.81-0.66-1.47-1.47-1.47H114.08z"/>
	<path class="st4" d="M104.31,227.74c-0.81,0-1.47,0.66-1.47,1.47c0,0.81,0.66,1.47,1.47,1.47h3.68c0.81,0,1.47-0.66,1.47-1.47
		c0-0.81-0.66-1.47-1.47-1.47H104.31z"/>
</g>
<circle class="st0" cx="118.59" cy="454.34" r="81.93"/>
<circle class="st5" cx="118.59" cy="454.34" r="93.58"/>
<circle class="st0" cx="516.11" cy="509.44" r="60.57"/>
<circle class="st2" cx="516.11" cy="509.44" r="68.88"/>
<path class="st6" d="M389.33,361.6H228.64c-10.87,0-19.67-8.81-19.67-19.67v-32.14c0-10.87,8.81-19.67,19.67-19.67h160.68
	c10.87,0,19.67,8.81,19.67,19.67v32.14C409,352.79,400.19,361.6,389.33,361.6z"/>
<path class="st6" d="M598.2,361.6H468.52c-10.87,0-19.67-8.81-19.67-19.67v-32.14c0-10.87,8.81-19.67,19.67-19.67H598.2
	c10.87,0,19.67,8.81,19.67,19.67v32.14C617.87,352.79,609.06,361.6,598.2,361.6z"/>
<path class="st6" d="M773.77,361.6h-91.68c-10.87,0-19.67-8.81-19.67-19.67v-32.14c0-10.87,8.81-19.67,19.67-19.67h91.68
	c10.87,0,19.67,8.81,19.67,19.67v32.14C793.45,352.79,784.64,361.6,773.77,361.6z"/>
<path class="st6" d="M992.05,361.6H864.37c-10.87,0-19.67-8.81-19.67-19.67v-32.14c0-10.87,8.81-19.67,19.67-19.67h127.68
	c10.87,0,19.67,8.81,19.67,19.67v32.14C1011.72,352.79,1002.91,361.6,992.05,361.6z"/>
<g>
	<path class="st7" d="M235.94,320.59l-7.32,16.8h-3.07l-7.34-16.8h3.38l5.59,12.96l5.64-12.96H235.94z"/>
	<path class="st7" d="M237.69,321.95c-0.37-0.34-0.55-0.77-0.55-1.28c0-0.51,0.18-0.94,0.55-1.28s0.82-0.52,1.37-0.52
		s1,0.17,1.37,0.49c0.37,0.33,0.55,0.74,0.55,1.24c0,0.53-0.18,0.97-0.54,1.33c-0.36,0.36-0.82,0.54-1.38,0.54
		C238.51,322.46,238.06,322.29,237.69,321.95z M237.55,324.58h3v12.82h-3V324.58z"/>
	<path class="st7" d="M257.03,319.58v17.81h-2.88v-1.66c-0.5,0.61-1.11,1.06-1.84,1.37c-0.73,0.3-1.53,0.46-2.41,0.46
		c-1.23,0-2.34-0.27-3.32-0.82c-0.98-0.54-1.76-1.32-2.32-2.32s-0.84-2.15-0.84-3.44s0.28-2.44,0.84-3.43s1.33-1.76,2.32-2.3
		s2.09-0.82,3.32-0.82c0.85,0,1.62,0.14,2.33,0.43c0.7,0.29,1.3,0.72,1.8,1.3v-6.58H257.03z M252.21,334.5
		c0.58-0.33,1.03-0.8,1.37-1.4s0.5-1.31,0.5-2.11c0-0.8-0.17-1.5-0.5-2.11c-0.34-0.61-0.79-1.08-1.37-1.4
		c-0.58-0.33-1.22-0.49-1.94-0.49c-0.72,0-1.37,0.16-1.94,0.49c-0.58,0.33-1.03,0.8-1.37,1.4c-0.34,0.61-0.5,1.31-0.5,2.11
		c0,0.8,0.17,1.5,0.5,2.11s0.79,1.08,1.37,1.4c0.58,0.33,1.22,0.49,1.94,0.49C250.99,334.99,251.63,334.83,252.21,334.5z"/>
	<path class="st7" d="M272.97,331.94h-10.06c0.18,0.94,0.64,1.69,1.38,2.24s1.67,0.83,2.77,0.83c1.41,0,2.57-0.46,3.48-1.39
		l1.61,1.85c-0.58,0.69-1.3,1.21-2.18,1.56c-0.88,0.35-1.87,0.53-2.98,0.53c-1.41,0-2.65-0.28-3.72-0.84
		c-1.07-0.56-1.9-1.34-2.48-2.34c-0.58-1-0.88-2.13-0.88-3.4c0-1.25,0.28-2.37,0.85-3.37c0.57-1,1.36-1.78,2.36-2.34
		c1.01-0.56,2.14-0.84,3.41-0.84c1.25,0,2.36,0.28,3.35,0.83c0.98,0.55,1.75,1.33,2.3,2.33c0.55,1,0.83,2.16,0.83,3.47
		C273.02,331.26,273,331.56,272.97,331.94z M264.1,327.68c-0.66,0.57-1.07,1.32-1.21,2.27h7.27c-0.13-0.93-0.52-1.68-1.18-2.26
		c-0.66-0.58-1.47-0.86-2.45-0.86C265.58,326.83,264.77,327.12,264.1,327.68z"/>
	<path class="st7" d="M278.15,336.72c-1.04-0.56-1.85-1.34-2.44-2.34c-0.58-1-0.88-2.13-0.88-3.4c0-1.26,0.29-2.39,0.88-3.38
		c0.58-0.99,1.4-1.77,2.44-2.33c1.04-0.56,2.21-0.84,3.5-0.84c1.31,0,2.49,0.28,3.53,0.84c1.04,0.56,1.85,1.34,2.44,2.33
		s0.88,2.12,0.88,3.38c0,1.26-0.29,2.4-0.88,3.4s-1.4,1.78-2.44,2.34c-1.04,0.56-2.22,0.84-3.53,0.84
		C280.36,337.56,279.19,337.28,278.15,336.72z M284.39,333.89c0.72-0.74,1.08-1.7,1.08-2.9s-0.36-2.17-1.08-2.9
		c-0.72-0.74-1.63-1.1-2.74-1.1s-2.01,0.37-2.72,1.1c-0.71,0.74-1.07,1.7-1.07,2.9s0.36,2.17,1.07,2.9s1.62,1.1,2.72,1.1
		S283.67,334.62,284.39,333.89z"/>
	<path class="st7" d="M310.89,334.78v2.62h-12.6v-16.8h12.26v2.62h-9.14v4.37h8.11v2.57h-8.11v4.63H310.89z"/>
	<path class="st7" d="M325.24,325.85c0.98,0.94,1.46,2.34,1.46,4.2v7.34h-3v-6.96c0-1.12-0.26-1.96-0.79-2.53
		c-0.53-0.57-1.28-0.85-2.26-0.85c-1.1,0-1.98,0.33-2.62,1c-0.64,0.66-0.96,1.62-0.96,2.87v6.48h-3v-12.82h2.86v1.66
		c0.5-0.59,1.12-1.04,1.87-1.34s1.6-0.46,2.54-0.46C322.97,324.43,324.27,324.9,325.24,325.85z"/>
	<path class="st7" d="M332.94,336.72c-1.06-0.56-1.88-1.34-2.47-2.34s-0.89-2.13-0.89-3.4c0-1.26,0.3-2.39,0.89-3.38
		s1.41-1.77,2.46-2.33c1.05-0.56,2.24-0.84,3.59-0.84c1.26,0,2.37,0.26,3.32,0.77c0.95,0.51,1.67,1.25,2.15,2.21l-2.3,1.34
		c-0.37-0.59-0.83-1.04-1.38-1.33c-0.55-0.3-1.16-0.44-1.81-0.44c-1.12,0-2.05,0.36-2.78,1.09c-0.74,0.73-1.1,1.7-1.1,2.92
		c0,1.22,0.36,2.19,1.09,2.92c0.73,0.73,1.66,1.09,2.8,1.09c0.66,0,1.26-0.15,1.81-0.44c0.55-0.3,1.01-0.74,1.38-1.33l2.3,1.34
		c-0.5,0.96-1.22,1.7-2.17,2.22c-0.95,0.52-2.05,0.78-3.3,0.78C335.19,337.56,334,337.28,332.94,336.72z"/>
	<path class="st7" d="M346.65,336.72c-1.04-0.56-1.85-1.34-2.44-2.34c-0.58-1-0.88-2.13-0.88-3.4c0-1.26,0.29-2.39,0.88-3.38
		c0.58-0.99,1.4-1.77,2.44-2.33c1.04-0.56,2.21-0.84,3.5-0.84c1.31,0,2.49,0.28,3.53,0.84c1.04,0.56,1.85,1.34,2.44,2.33
		s0.88,2.12,0.88,3.38c0,1.26-0.29,2.4-0.88,3.4s-1.4,1.78-2.44,2.34c-1.04,0.56-2.22,0.84-3.53,0.84
		C348.86,337.56,347.69,337.28,346.65,336.72z M352.89,333.89c0.72-0.74,1.08-1.7,1.08-2.9s-0.36-2.17-1.08-2.9
		c-0.72-0.74-1.63-1.1-2.74-1.1s-2.01,0.37-2.72,1.1c-0.71,0.74-1.07,1.7-1.07,2.9s0.36,2.17,1.07,2.9s1.62,1.1,2.72,1.1
		S352.17,334.62,352.89,333.89z"/>
	<path class="st7" d="M372.42,319.58v17.81h-2.88v-1.66c-0.5,0.61-1.11,1.06-1.84,1.37c-0.73,0.3-1.53,0.46-2.41,0.46
		c-1.23,0-2.34-0.27-3.32-0.82c-0.98-0.54-1.76-1.32-2.32-2.32s-0.84-2.15-0.84-3.44s0.28-2.44,0.84-3.43s1.33-1.76,2.32-2.3
		s2.09-0.82,3.32-0.82c0.85,0,1.62,0.14,2.33,0.43c0.7,0.29,1.3,0.72,1.8,1.3v-6.58H372.42z M367.6,334.5
		c0.58-0.33,1.03-0.8,1.37-1.4s0.5-1.31,0.5-2.11c0-0.8-0.17-1.5-0.5-2.11c-0.34-0.61-0.79-1.08-1.37-1.4
		c-0.58-0.33-1.22-0.49-1.94-0.49c-0.72,0-1.37,0.16-1.94,0.49c-0.58,0.33-1.03,0.8-1.37,1.4c-0.34,0.61-0.5,1.31-0.5,2.11
		c0,0.8,0.17,1.5,0.5,2.11s0.79,1.08,1.37,1.4c0.58,0.33,1.22,0.49,1.94,0.49C366.38,334.99,367.02,334.83,367.6,334.5z"/>
	<path class="st7" d="M388.36,331.94H378.3c0.18,0.94,0.64,1.69,1.38,2.24s1.67,0.83,2.77,0.83c1.41,0,2.57-0.46,3.48-1.39
		l1.61,1.85c-0.58,0.69-1.3,1.21-2.18,1.56c-0.88,0.35-1.87,0.53-2.98,0.53c-1.41,0-2.65-0.28-3.72-0.84
		c-1.07-0.56-1.9-1.34-2.48-2.34c-0.58-1-0.88-2.13-0.88-3.4c0-1.25,0.28-2.37,0.85-3.37c0.57-1,1.36-1.78,2.36-2.34
		c1.01-0.56,2.14-0.84,3.41-0.84c1.25,0,2.36,0.28,3.35,0.83c0.98,0.55,1.75,1.33,2.3,2.33c0.55,1,0.83,2.16,0.83,3.47
		C388.41,331.26,388.39,331.56,388.36,331.94z M379.49,327.68c-0.66,0.57-1.07,1.32-1.21,2.27h7.27c-0.13-0.93-0.52-1.68-1.18-2.26
		c-0.66-0.58-1.47-0.86-2.45-0.86C380.97,326.83,380.16,327.12,379.49,327.68z"/>
	<path class="st7" d="M398.7,324.43v2.86c-0.26-0.05-0.49-0.07-0.7-0.07c-1.17,0-2.08,0.34-2.74,1.02
		c-0.66,0.68-0.98,1.66-0.98,2.94v6.22h-3v-12.82h2.86v1.87C395.01,325.1,396.53,324.43,398.7,324.43z"/>
</g>
<g>
	<path class="st7" d="M472.94,320.59l-7.32,16.8h-3.07l-7.34-16.8h3.38l5.59,12.96l5.64-12.96H472.94z"/>
	<path class="st7" d="M474.69,321.95c-0.37-0.34-0.55-0.77-0.55-1.28c0-0.51,0.18-0.94,0.55-1.28s0.82-0.52,1.37-0.52
		s1,0.17,1.37,0.49c0.37,0.33,0.55,0.74,0.55,1.24c0,0.53-0.18,0.97-0.54,1.33c-0.36,0.36-0.82,0.54-1.38,0.54
		C475.51,322.46,475.06,322.29,474.69,321.95z M474.55,324.58h3v12.82h-3V324.58z"/>
	<path class="st7" d="M494.03,319.58v17.81h-2.88v-1.66c-0.5,0.61-1.11,1.06-1.84,1.37c-0.73,0.3-1.53,0.46-2.41,0.46
		c-1.23,0-2.34-0.27-3.32-0.82c-0.98-0.54-1.76-1.32-2.32-2.32s-0.84-2.15-0.84-3.44s0.28-2.44,0.84-3.43s1.33-1.76,2.32-2.3
		s2.09-0.82,3.32-0.82c0.85,0,1.62,0.14,2.33,0.43c0.7,0.29,1.3,0.72,1.8,1.3v-6.58H494.03z M489.21,334.5
		c0.58-0.33,1.03-0.8,1.37-1.4s0.5-1.31,0.5-2.11c0-0.8-0.17-1.5-0.5-2.11c-0.34-0.61-0.79-1.08-1.37-1.4
		c-0.58-0.33-1.22-0.49-1.94-0.49c-0.72,0-1.37,0.16-1.94,0.49c-0.58,0.33-1.03,0.8-1.37,1.4c-0.34,0.61-0.5,1.31-0.5,2.11
		c0,0.8,0.17,1.5,0.5,2.11s0.79,1.08,1.37,1.4c0.58,0.33,1.22,0.49,1.94,0.49C487.99,334.99,488.63,334.83,489.21,334.5z"/>
	<path class="st7" d="M509.97,331.94h-10.06c0.18,0.94,0.64,1.69,1.38,2.24s1.67,0.83,2.77,0.83c1.41,0,2.57-0.46,3.48-1.39
		l1.61,1.85c-0.58,0.69-1.3,1.21-2.18,1.56c-0.88,0.35-1.87,0.53-2.98,0.53c-1.41,0-2.65-0.28-3.72-0.84
		c-1.07-0.56-1.9-1.34-2.48-2.34c-0.58-1-0.88-2.13-0.88-3.4c0-1.25,0.28-2.37,0.85-3.37c0.57-1,1.36-1.78,2.36-2.34
		c1.01-0.56,2.14-0.84,3.41-0.84c1.25,0,2.36,0.28,3.35,0.83c0.98,0.55,1.75,1.33,2.3,2.33c0.55,1,0.83,2.16,0.83,3.47
		C510.02,331.26,510,331.56,509.97,331.94z M501.1,327.68c-0.66,0.57-1.07,1.32-1.21,2.27h7.27c-0.13-0.93-0.52-1.68-1.18-2.26
		c-0.66-0.58-1.47-0.86-2.45-0.86C502.58,326.83,501.77,327.12,501.1,327.68z"/>
	<path class="st7" d="M515.15,336.72c-1.04-0.56-1.85-1.34-2.44-2.34c-0.58-1-0.88-2.13-0.88-3.4c0-1.26,0.29-2.39,0.88-3.38
		c0.58-0.99,1.4-1.77,2.44-2.33c1.04-0.56,2.21-0.84,3.5-0.84c1.31,0,2.49,0.28,3.53,0.84c1.04,0.56,1.85,1.34,2.44,2.33
		s0.88,2.12,0.88,3.38c0,1.26-0.29,2.4-0.88,3.4s-1.4,1.78-2.44,2.34c-1.04,0.56-2.22,0.84-3.53,0.84
		C517.36,337.56,516.19,337.28,515.15,336.72z M521.39,333.89c0.72-0.74,1.08-1.7,1.08-2.9s-0.36-2.17-1.08-2.9
		c-0.72-0.74-1.63-1.1-2.74-1.1s-2.01,0.37-2.72,1.1c-0.71,0.74-1.07,1.7-1.07,2.9s0.36,2.17,1.07,2.9s1.62,1.1,2.72,1.1
		S520.67,334.62,521.39,333.89z"/>
	<path class="st7" d="M536.74,337.08c-1.21-0.37-2.16-0.86-2.87-1.46l1.08-2.42c0.69,0.54,1.53,0.99,2.53,1.33
		c1,0.34,2,0.52,3.01,0.52c1.25,0,2.18-0.2,2.8-0.6c0.62-0.4,0.92-0.93,0.92-1.58c0-0.48-0.17-0.88-0.52-1.19
		c-0.34-0.31-0.78-0.56-1.31-0.73c-0.53-0.18-1.25-0.38-2.16-0.6c-1.28-0.3-2.32-0.61-3.11-0.91s-1.47-0.78-2.04-1.43
		c-0.57-0.65-0.85-1.52-0.85-2.63c0-0.93,0.25-1.77,0.76-2.53s1.26-1.36,2.28-1.81c1.02-0.45,2.26-0.67,3.73-0.67
		c1.02,0,2.03,0.13,3.02,0.38c0.99,0.26,1.85,0.62,2.57,1.1l-0.98,2.42c-0.74-0.43-1.5-0.76-2.3-0.98c-0.8-0.22-1.58-0.34-2.33-0.34
		c-1.23,0-2.15,0.21-2.75,0.62c-0.6,0.42-0.9,0.97-0.9,1.66c0,0.48,0.17,0.87,0.52,1.18c0.34,0.3,0.78,0.54,1.31,0.72
		c0.53,0.18,1.25,0.38,2.16,0.6c1.25,0.29,2.27,0.59,3.07,0.9c0.8,0.31,1.48,0.79,2.05,1.43s0.85,1.5,0.85,2.59
		c0,0.93-0.25,1.77-0.76,2.52c-0.5,0.75-1.27,1.35-2.29,1.8c-1.02,0.45-2.27,0.67-3.74,0.67
		C539.2,337.63,537.95,337.45,536.74,337.08z"/>
	<path class="st7" d="M562.1,331.94h-10.06c0.18,0.94,0.64,1.69,1.38,2.24s1.67,0.83,2.77,0.83c1.41,0,2.57-0.46,3.48-1.39
		l1.61,1.85c-0.58,0.69-1.3,1.21-2.18,1.56c-0.88,0.35-1.87,0.53-2.98,0.53c-1.41,0-2.65-0.28-3.72-0.84
		c-1.07-0.56-1.9-1.34-2.48-2.34s-0.88-2.13-0.88-3.4c0-1.25,0.28-2.37,0.85-3.37c0.57-1,1.36-1.78,2.36-2.34
		c1.01-0.56,2.14-0.84,3.41-0.84c1.25,0,2.36,0.28,3.35,0.83s1.75,1.33,2.3,2.33c0.55,1,0.83,2.16,0.83,3.47
		C562.15,331.26,562.13,331.56,562.1,331.94z M553.23,327.68c-0.66,0.57-1.07,1.32-1.21,2.27h7.27c-0.13-0.93-0.52-1.68-1.18-2.26
		s-1.47-0.86-2.45-0.86C554.71,326.83,553.89,327.12,553.23,327.68z"/>
	<path class="st7" d="M572.44,324.43v2.86c-0.26-0.05-0.49-0.07-0.7-0.07c-1.17,0-2.08,0.34-2.74,1.02
		c-0.66,0.68-0.98,1.66-0.98,2.94v6.22h-3v-12.82h2.86v1.87C568.75,325.1,570.27,324.43,572.44,324.43z"/>
	<path class="st7" d="M587.46,324.58l-5.5,12.82h-3.1l-5.5-12.82h3.12l3.98,9.5l4.1-9.5H587.46z"/>
	<path class="st7" d="M600.98,331.94h-10.06c0.18,0.94,0.64,1.69,1.38,2.24s1.67,0.83,2.77,0.83c1.41,0,2.57-0.46,3.48-1.39
		l1.61,1.85c-0.58,0.69-1.3,1.21-2.18,1.56c-0.88,0.35-1.87,0.53-2.98,0.53c-1.41,0-2.65-0.28-3.72-0.84
		c-1.07-0.56-1.9-1.34-2.48-2.34s-0.88-2.13-0.88-3.4c0-1.25,0.28-2.37,0.85-3.37c0.57-1,1.36-1.78,2.36-2.34
		c1.01-0.56,2.14-0.84,3.41-0.84c1.25,0,2.36,0.28,3.35,0.83c0.98,0.55,1.75,1.33,2.3,2.33s0.83,2.16,0.83,3.47
		C601.03,331.26,601.01,331.56,600.98,331.94z M592.11,327.68c-0.66,0.57-1.07,1.32-1.21,2.27h7.27c-0.13-0.93-0.52-1.68-1.18-2.26
		c-0.66-0.58-1.47-0.86-2.45-0.86C593.58,326.83,592.77,327.12,592.11,327.68z"/>
	<path class="st7" d="M611.32,324.43v2.86c-0.26-0.05-0.49-0.07-0.7-0.07c-1.17,0-2.08,0.34-2.74,1.02
		c-0.66,0.68-0.98,1.66-0.98,2.94v6.22h-3v-12.82h2.86v1.87C607.63,325.1,609.14,324.43,611.32,324.43z"/>
</g>
<g>
	<path class="st7" d="M685.51,320.59v16.8h-2.57l-9.26-11.38v11.38h-3.1v-16.8h2.57l9.26,11.38v-11.38H685.51z"/>
	<path class="st7" d="M701.73,331.94h-10.06c0.18,0.94,0.64,1.69,1.38,2.24s1.67,0.83,2.77,0.83c1.41,0,2.57-0.46,3.48-1.39
		l1.61,1.85c-0.58,0.69-1.3,1.21-2.18,1.56c-0.88,0.35-1.87,0.53-2.98,0.53c-1.41,0-2.65-0.28-3.72-0.84
		c-1.07-0.56-1.9-1.34-2.48-2.34s-0.88-2.13-0.88-3.4c0-1.25,0.28-2.37,0.85-3.37c0.57-1,1.36-1.78,2.36-2.34
		c1.01-0.56,2.14-0.84,3.41-0.84c1.25,0,2.36,0.28,3.35,0.83c0.98,0.55,1.75,1.33,2.3,2.33s0.83,2.16,0.83,3.47
		C701.78,331.26,701.76,331.56,701.73,331.94z M692.86,327.68c-0.66,0.57-1.07,1.32-1.21,2.27h7.27c-0.13-0.93-0.52-1.68-1.18-2.26
		c-0.66-0.58-1.47-0.86-2.45-0.86C694.34,326.83,693.53,327.12,692.86,327.68z"/>
	<path class="st7" d="M712.36,336.7c-0.35,0.29-0.78,0.5-1.28,0.65c-0.5,0.14-1.04,0.22-1.6,0.22c-1.41,0-2.5-0.37-3.26-1.1
		c-0.77-0.74-1.15-1.81-1.15-3.22v-6.17h-2.11v-2.4h2.11v-2.93h3v2.93h3.43v2.4h-3.43v6.1c0,0.62,0.15,1.1,0.46,1.43
		s0.74,0.49,1.32,0.49c0.67,0,1.23-0.18,1.68-0.53L712.36,336.7z"/>
	<path class="st7" d="M734.59,324.58l-4.73,12.82h-2.88l-3.31-8.83l-3.36,8.83h-2.88l-4.7-12.82h2.83l3.38,9.46l3.53-9.46h2.52
		l3.46,9.5l3.48-9.5H734.59z"/>
	<path class="st7" d="M738.55,336.72c-1.04-0.56-1.85-1.34-2.44-2.34s-0.88-2.13-0.88-3.4c0-1.26,0.29-2.39,0.88-3.38
		s1.4-1.77,2.44-2.33c1.04-0.56,2.21-0.84,3.5-0.84c1.31,0,2.49,0.28,3.53,0.84c1.04,0.56,1.85,1.34,2.44,2.33s0.88,2.12,0.88,3.38
		c0,1.26-0.29,2.4-0.88,3.4s-1.4,1.78-2.44,2.34c-1.04,0.56-2.22,0.84-3.53,0.84C740.75,337.56,739.59,337.28,738.55,336.72z
		 M744.79,333.89c0.72-0.74,1.08-1.7,1.08-2.9s-0.36-2.17-1.08-2.9c-0.72-0.74-1.63-1.1-2.74-1.1c-1.1,0-2.01,0.37-2.72,1.1
		c-0.71,0.74-1.07,1.7-1.07,2.9s0.36,2.17,1.07,2.9s1.62,1.1,2.72,1.1C743.15,334.99,744.07,334.62,744.79,333.89z"/>
	<path class="st7" d="M759.19,324.43v2.86c-0.26-0.05-0.49-0.07-0.7-0.07c-1.17,0-2.08,0.34-2.74,1.02
		c-0.66,0.68-0.98,1.66-0.98,2.94v6.22h-3v-12.82h2.86v1.87C755.49,325.1,757.01,324.43,759.19,324.43z"/>
	<path class="st7" d="M766.96,331.9l-2.23,2.11v3.38h-3v-17.81h3v10.75l6.22-5.76h3.6l-5.35,5.38l5.86,7.44h-3.65L766.96,331.9z"/>
	<path class="st7" d="M777.5,337.15c-0.99-0.27-1.78-0.62-2.38-1.03l1.15-2.28c0.58,0.38,1.27,0.69,2.08,0.92
		c0.81,0.23,1.6,0.35,2.39,0.35c1.79,0,2.69-0.47,2.69-1.42c0-0.45-0.23-0.76-0.68-0.94s-1.19-0.34-2.2-0.5
		c-1.06-0.16-1.92-0.34-2.58-0.55c-0.66-0.21-1.24-0.57-1.73-1.09c-0.49-0.52-0.73-1.24-0.73-2.17c0-1.22,0.51-2.19,1.52-2.92
		c1.02-0.73,2.39-1.09,4.12-1.09c0.88,0,1.76,0.1,2.64,0.3s1.6,0.47,2.16,0.8l-1.15,2.28c-1.09-0.64-2.31-0.96-3.67-0.96
		c-0.88,0-1.55,0.13-2,0.4c-0.46,0.26-0.68,0.61-0.68,1.04c0,0.48,0.24,0.82,0.73,1.02c0.49,0.2,1.24,0.39,2.27,0.56
		c1.02,0.16,1.86,0.34,2.52,0.55c0.66,0.21,1.22,0.56,1.69,1.06c0.47,0.5,0.71,1.2,0.71,2.11c0,1.2-0.52,2.16-1.56,2.88
		s-2.46,1.08-4.25,1.08C779.51,337.56,778.49,337.42,777.5,337.15z"/>
</g>
<g>
	<path class="st7" d="M864.57,337.39l-3.43-4.92c-0.14,0.02-0.36,0.02-0.65,0.02h-3.79v4.9h-3.12v-16.8h6.91
		c1.46,0,2.72,0.24,3.8,0.72c1.08,0.48,1.91,1.17,2.48,2.06c0.58,0.9,0.86,1.96,0.86,3.19c0,1.26-0.31,2.35-0.92,3.26
		c-0.62,0.91-1.5,1.59-2.65,2.04l3.86,5.52H864.57z M863.44,324.1c-0.71-0.58-1.74-0.86-3.1-0.86h-3.65v6.7h3.65
		c1.36,0,2.39-0.29,3.1-0.88c0.7-0.58,1.06-1.41,1.06-2.48C864.5,325.5,864.15,324.67,863.44,324.1z"/>
	<path class="st7" d="M882.83,331.94h-10.06c0.18,0.94,0.64,1.69,1.38,2.24s1.67,0.83,2.77,0.83c1.41,0,2.57-0.46,3.48-1.39
		l1.61,1.85c-0.58,0.69-1.3,1.21-2.18,1.56c-0.88,0.35-1.87,0.53-2.98,0.53c-1.41,0-2.65-0.28-3.72-0.84
		c-1.07-0.56-1.9-1.34-2.48-2.34s-0.88-2.13-0.88-3.4c0-1.25,0.28-2.37,0.85-3.37c0.57-1,1.36-1.78,2.36-2.34
		c1.01-0.56,2.14-0.84,3.41-0.84c1.25,0,2.36,0.28,3.35,0.83c0.98,0.55,1.75,1.33,2.3,2.33s0.83,2.16,0.83,3.47
		C882.88,331.26,882.87,331.56,882.83,331.94z M873.97,327.68c-0.66,0.57-1.07,1.32-1.21,2.27h7.27c-0.13-0.93-0.52-1.68-1.18-2.26
		c-0.66-0.58-1.47-0.86-2.45-0.86C875.44,326.83,874.63,327.12,873.97,327.68z"/>
	<path class="st7" d="M885.76,319.58h3v17.81h-3V319.58z"/>
	<path class="st7" d="M901.93,325.79c1,0.9,1.5,2.27,1.5,4.09v7.51h-2.83v-1.56c-0.37,0.56-0.89,0.99-1.57,1.28s-1.5,0.44-2.46,0.44
		s-1.8-0.16-2.52-0.49c-0.72-0.33-1.28-0.78-1.67-1.37c-0.39-0.58-0.59-1.24-0.59-1.98c0-1.15,0.43-2.08,1.28-2.77
		c0.86-0.7,2.2-1.04,4.04-1.04h3.31v-0.19c0-0.9-0.27-1.58-0.8-2.06c-0.54-0.48-1.33-0.72-2.39-0.72c-0.72,0-1.43,0.11-2.12,0.34
		c-0.7,0.22-1.28,0.54-1.76,0.94l-1.18-2.18c0.67-0.51,1.48-0.9,2.42-1.18s1.94-0.41,3-0.41
		C899.48,324.43,900.93,324.88,901.93,325.79z M899.19,334.86c0.58-0.34,1-0.84,1.24-1.48v-1.49h-3.1c-1.73,0-2.59,0.57-2.59,1.7
		c0,0.54,0.22,0.98,0.65,1.3c0.43,0.32,1.03,0.48,1.8,0.48C897.94,335.38,898.61,335.2,899.19,334.86z"/>
	<path class="st7" d="M919.03,324.58l-6,13.85c-0.56,1.39-1.24,2.37-2.04,2.94c-0.8,0.57-1.77,0.85-2.9,0.85
		c-0.64,0-1.27-0.1-1.9-0.31s-1.14-0.5-1.54-0.86l1.2-2.21c0.29,0.27,0.63,0.49,1.02,0.65c0.39,0.16,0.79,0.24,1.19,0.24
		c0.53,0,0.96-0.14,1.31-0.41c0.34-0.27,0.66-0.73,0.95-1.37l0.22-0.5l-5.59-12.86h3.12l4.03,9.48l4.06-9.48H919.03z"/>
	<path class="st7" d="M929.26,337.08c-1.21-0.37-2.16-0.86-2.87-1.46l1.08-2.42c0.69,0.54,1.53,0.99,2.53,1.33
		c1,0.34,2,0.52,3.01,0.52c1.25,0,2.18-0.2,2.8-0.6c0.62-0.4,0.92-0.93,0.92-1.58c0-0.48-0.17-0.88-0.52-1.19
		c-0.34-0.31-0.78-0.56-1.31-0.73c-0.53-0.18-1.25-0.38-2.16-0.6c-1.28-0.3-2.32-0.61-3.11-0.91s-1.47-0.78-2.04-1.43
		c-0.57-0.65-0.85-1.52-0.85-2.63c0-0.93,0.25-1.77,0.76-2.53s1.26-1.36,2.28-1.81c1.02-0.45,2.26-0.67,3.73-0.67
		c1.02,0,2.03,0.13,3.02,0.38c0.99,0.26,1.85,0.62,2.57,1.1l-0.98,2.42c-0.74-0.43-1.5-0.76-2.3-0.98c-0.8-0.22-1.58-0.34-2.33-0.34
		c-1.23,0-2.15,0.21-2.75,0.62s-0.9,0.97-0.9,1.66c0,0.48,0.17,0.87,0.52,1.18c0.34,0.3,0.78,0.54,1.31,0.72
		c0.53,0.18,1.25,0.38,2.16,0.6c1.25,0.29,2.27,0.59,3.07,0.9c0.8,0.31,1.48,0.79,2.05,1.43c0.57,0.64,0.85,1.5,0.85,2.59
		c0,0.93-0.25,1.77-0.76,2.52c-0.5,0.75-1.27,1.35-2.29,1.8c-1.02,0.45-2.27,0.67-3.74,0.67
		C931.72,337.63,930.47,337.45,929.26,337.08z"/>
	<path class="st7" d="M954.62,331.94h-10.06c0.18,0.94,0.64,1.69,1.38,2.24s1.67,0.83,2.77,0.83c1.41,0,2.57-0.46,3.48-1.39
		l1.61,1.85c-0.58,0.69-1.3,1.21-2.18,1.56c-0.88,0.35-1.87,0.53-2.98,0.53c-1.41,0-2.65-0.28-3.72-0.84
		c-1.07-0.56-1.9-1.34-2.48-2.34c-0.58-1-0.88-2.13-0.88-3.4c0-1.25,0.28-2.37,0.85-3.37c0.57-1,1.36-1.78,2.36-2.34
		c1.01-0.56,2.14-0.84,3.41-0.84c1.25,0,2.36,0.28,3.35,0.83s1.75,1.33,2.3,2.33c0.55,1,0.83,2.16,0.83,3.47
		C954.67,331.26,954.65,331.56,954.62,331.94z M945.75,327.68c-0.66,0.57-1.07,1.32-1.21,2.27h7.27c-0.13-0.93-0.52-1.68-1.18-2.26
		s-1.47-0.86-2.45-0.86C947.23,326.83,946.41,327.12,945.75,327.68z"/>
	<path class="st7" d="M964.96,324.43v2.86c-0.26-0.05-0.49-0.07-0.7-0.07c-1.17,0-2.08,0.34-2.74,1.02
		c-0.66,0.68-0.98,1.66-0.98,2.94v6.22h-3v-12.82h2.86v1.87C961.26,325.1,962.79,324.43,964.96,324.43z"/>
	<path class="st7" d="M979.98,324.58l-5.5,12.82h-3.1l-5.5-12.82h3.12l3.98,9.5l4.1-9.5H979.98z"/>
	<path class="st7" d="M993.5,331.94h-10.06c0.18,0.94,0.64,1.69,1.38,2.24s1.67,0.83,2.77,0.83c1.41,0,2.57-0.46,3.48-1.39
		l1.61,1.85c-0.58,0.69-1.3,1.21-2.18,1.56c-0.88,0.35-1.87,0.53-2.98,0.53c-1.41,0-2.65-0.28-3.72-0.84
		c-1.07-0.56-1.9-1.34-2.48-2.34s-0.88-2.13-0.88-3.4c0-1.25,0.28-2.37,0.85-3.37c0.57-1,1.36-1.78,2.36-2.34
		c1.01-0.56,2.14-0.84,3.41-0.84c1.25,0,2.36,0.28,3.35,0.83c0.98,0.55,1.75,1.33,2.3,2.33s0.83,2.16,0.83,3.47
		C993.54,331.26,993.53,331.56,993.5,331.94z M984.63,327.68c-0.66,0.57-1.07,1.32-1.21,2.27h7.27c-0.13-0.93-0.52-1.68-1.18-2.26
		c-0.66-0.58-1.47-0.86-2.45-0.86C986.1,326.83,985.29,327.12,984.63,327.68z"/>
	<path class="st7" d="M1003.84,324.43v2.86c-0.26-0.05-0.49-0.07-0.7-0.07c-1.17,0-2.08,0.34-2.74,1.02
		c-0.66,0.68-0.98,1.66-0.98,2.94v6.22h-3v-12.82h2.86v1.87C1000.14,325.1,1001.66,324.43,1003.84,324.43z"/>
</g>
<g class="st3">
	<g>
		<path class="st4" d="M547.86,486.6c0-7.7-13.7-13.73-31.2-13.73s-31.2,6.03-31.2,13.73c0,0.42,0.04,0.84,0.12,1.25h-0.12v48.67
			c0,7.7,13.7,13.73,31.2,13.73s31.2-6.03,31.2-13.73v-48.67h-0.12C547.82,487.44,547.86,487.02,547.86,486.6z M545.36,536.52
			c0,5.42-11.53,11.23-28.7,11.23c-17.17,0-28.7-5.81-28.7-11.23v-7.01c4.72,4.9,15.65,8.25,28.7,8.25c13.05,0,23.98-3.36,28.7-8.25
			V536.52z M545.36,524.04c0,5.42-11.53,11.23-28.7,11.23c-17.17,0-28.7-5.81-28.7-11.23v-7.01c4.72,4.9,15.65,8.25,28.7,8.25
			c13.05,0,23.98-3.36,28.7-8.25V524.04z M545.36,511.56c0,5.42-11.53,11.23-28.7,11.23c-17.17,0-28.7-5.81-28.7-11.23v-7.01
			c4.72,4.9,15.65,8.25,28.7,8.25c13.05,0,23.98-3.36,28.7-8.25V511.56z M545.36,499.08c0,5.42-11.53,11.23-28.7,11.23
			c-17.17,0-28.7-5.81-28.7-11.23v-7.01c4.72,4.9,15.65,8.25,28.7,8.25c13.05,0,23.98-3.36,28.7-8.25V499.08z M516.66,497.83
			c-17.17,0-28.7-5.81-28.7-11.23s11.53-11.23,28.7-11.23c17.17,0,28.7,5.81,28.7,11.23S533.83,497.83,516.66,497.83z"/>
	</g>
</g>
<g class="st3">
	<path class="st4" d="M1103.61,247.9h-7.9c2.03,0,3.68-1.65,3.69-3.69v-1.05c0-2.03-1.65-3.68-3.69-3.69h-2.56l-2.87-13.2
		c-0.3-3.25-3.03-5.74-6.29-5.76h-5.65v-1.05c0-0.12-0.02-0.25-0.06-0.36c1.02-1.07,1.71-2.4,2.01-3.85h0.16
		c1.74,0,3.16-1.42,3.16-3.16v-6.84c-0.01-6.1-4.95-11.05-11.06-11.06h-1.05c-6.1,0.01-11.05,4.95-11.06,11.06v6.84
		c0,1.74,1.42,3.16,3.16,3.16h0.16c0.3,1.45,0.99,2.78,2.01,3.85c-0.04,0.12-0.06,0.24-0.06,0.36v1.05h-5.65
		c-3.27,0.01-5.99,2.5-6.29,5.76l-2.41,11.09h-0.91c-0.3,0-0.59,0.04-0.88,0.11l-2.92-5.84c-0.26-0.52-0.89-0.73-1.41-0.47
		c-0.52,0.26-0.73,0.89-0.47,1.41l0,0l2.99,5.97c-0.64,0.68-0.99,1.58-0.99,2.51v3.16c0,2.03,1.65,3.68,3.69,3.69h-10
		c-0.58,0-1.05,0.47-1.05,1.05v4.21c0,0.58,0.47,1.05,1.05,1.05h1.05v2.11c0,0.58,0.47,1.05,1.05,1.05h58.97
		c0.58,0,1.05-0.47,1.05-1.05v-2.11h1.05c0.58,0,1.05-0.47,1.05-1.05v-4.21C1104.66,248.37,1104.19,247.9,1103.61,247.9z
		 M1092.55,241.58h3.16c0.87,0,1.58,0.71,1.58,1.58v1.05c0,0.87-0.71,1.58-1.58,1.58h-3.16c-0.87,0-1.58-0.71-1.58-1.58v-1.05
		C1090.97,242.29,1091.68,241.58,1092.55,241.58z M1081.5,212.1c0,0.58-0.47,1.05-1.05,1.05v-4.21h1.05V212.1z M1063.59,213.15
		c-0.58,0-1.05-0.47-1.05-1.05v-3.16h1.05V213.15z M1062.54,206.83v-1.58c0.01-4.94,4.01-8.95,8.95-8.95h1.05
		c4.94,0.01,8.95,4.01,8.95,8.95v1.58h-1.05v-0.53c0-0.2-0.01-0.4-0.02-0.6c-0.04-0.58-0.55-1.01-1.13-0.97
		c-0.11,0.01-0.21,0.03-0.31,0.07c-5.02,2-14.24,2.02-14.33,2.02H1062.54z M1065.7,213.68v-4.75c2.38-0.06,8.27-0.34,12.64-1.66
		v6.42c0,3.2-2.59,5.79-5.79,5.79h-1.05C1068.29,219.47,1065.7,216.87,1065.7,213.68z M1076.23,220.66v0.92
		c0,1.74-1.89,3.16-4.21,3.16s-4.21-1.42-4.21-3.16v-0.92c1.13,0.6,2.4,0.92,3.69,0.92h1.05
		C1073.83,221.58,1075.1,221.26,1076.23,220.66L1076.23,220.66z M1055.83,226.66c0.01-0.05,0.02-0.1,0.02-0.14
		c0.18-2.19,2-3.88,4.2-3.89h5.78c0.59,2.4,3.14,4.21,6.19,4.21s5.6-1.81,6.19-4.21h5.78c2.2,0.01,4.02,1.7,4.2,3.89
		c0,0.05,0.01,0.1,0.02,0.14l2.85,13.13c-1.33,0.59-2.2,1.91-2.2,3.37v1.05c0,2.03,1.65,3.68,3.69,3.69h-4.74v-16.32
		c0-2.03-1.65-3.68-3.69-3.69h-24.22c-2.03,0-3.68,1.65-3.69,3.69v16.32h-4.74c2.03,0,3.68-1.65,3.69-3.69v-3.16
		c0-1.29-0.68-2.49-1.79-3.16L1055.83,226.66z M1085.71,231.58v16.32h-27.38v-16.32c0-0.87,0.71-1.58,1.58-1.58h24.22
		C1085,230,1085.71,230.71,1085.71,231.58z M1048.85,244.22v-3.16c0-0.87,0.71-1.58,1.58-1.58h1.05c0.87,0,1.58,0.71,1.58,1.58v3.16
		c0,0.87-0.71,1.58-1.58,1.58h-1.05C1049.56,245.79,1048.85,245.09,1048.85,244.22z M1100.45,255.27h-56.86v-1.05h56.86V255.27z
		 M1102.56,252.11h-61.08v-2.11h61.08V252.11z"/>
	<path class="st4" d="M1072.02,236.32c-2.33,0-4.21,1.89-4.21,4.21s1.89,4.21,4.21,4.21s4.21-1.89,4.21-4.21
		C1076.23,238.21,1074.34,236.32,1072.02,236.32z M1072.02,242.64c-1.16,0-2.11-0.94-2.11-2.11s0.94-2.11,2.11-2.11
		s2.11,0.94,2.11,2.11C1074.12,241.69,1073.18,242.64,1072.02,242.64z"/>
	<circle class="st4" cx="1068.86" cy="211.05" r="1.05"/>
	<circle class="st4" cx="1075.18" cy="211.05" r="1.05"/>
	<path class="st4" d="M1070.97,217.36h2.11c0.58,0,1.05-0.47,1.05-1.05c0-0.58-0.47-1.05-1.05-1.05h-2.11
		c-0.58,0-1.05,0.47-1.05,1.05C1069.91,216.89,1070.38,217.36,1070.97,217.36z"/>
</g>
<g>
	<g>
		<line class="st8" x1="112.23" y1="282.02" x2="112.23" y2="284.52"/>
		<line class="st9" x1="112.23" y1="289.54" x2="112.23" y2="367.4"/>
		<line class="st8" x1="112.23" y1="369.91" x2="112.23" y2="372.41"/>
	</g>
</g>
<polyline class="st8" points="168.8,292.97 205.97,327.21 164.98,361.6 "/>
<g>
	<g>
		<line class="st8" x1="410.16" y1="327.21" x2="445.4" y2="327.21"/>
		<g>
			<polygon class="st4" points="441.42,330.6 444.81,327.21 441.42,323.82 444.3,323.82 447.69,327.21 444.3,330.6 			"/>
		</g>
	</g>
</g>
<g>
	<g>
		<line class="st8" x1="621.38" y1="327.21" x2="656.62" y2="327.21"/>
		<g>
			<polygon class="st4" points="652.64,330.6 656.03,327.21 652.64,323.82 655.52,323.82 658.91,327.21 655.52,330.6 			"/>
		</g>
	</g>
</g>
<line class="st10" x1="516" y1="443.02" x2="516" y2="364.49"/>
<g>
	<g>
		<line class="st8" x1="800.3" y1="327.21" x2="835.55" y2="327.21"/>
		<g>
			<polygon class="st4" points="831.57,330.6 834.96,327.21 831.57,323.82 834.45,323.82 837.84,327.21 834.45,330.6 			"/>
		</g>
	</g>
</g>
<g>
	<g>
		<path class="st11" d="M493.59,591.04l-9.15,21h-3.84l-9.18-21h4.23l6.99,16.2l7.05-16.2H493.59z"/>
		<path class="st11" d="M495.78,592.74c-0.46-0.43-0.69-0.96-0.69-1.61c0-0.64,0.23-1.17,0.69-1.6c0.46-0.43,1.03-0.65,1.71-0.65
			c0.68,0,1.25,0.21,1.71,0.62c0.46,0.41,0.69,0.92,0.69,1.54c0,0.66-0.23,1.21-0.67,1.67c-0.45,0.45-1.03,0.67-1.73,0.67
			C496.81,593.38,496.24,593.17,495.78,592.74z M495.6,596.02h3.75v16.02h-3.75V596.02z"/>
		<path class="st11" d="M519.96,589.78v22.26h-3.6v-2.07c-0.62,0.76-1.38,1.33-2.29,1.71c-0.91,0.38-1.92,0.57-3.01,0.57
			c-1.54,0-2.93-0.34-4.16-1.02s-2.2-1.65-2.9-2.9c-0.7-1.25-1.05-2.68-1.05-4.3s0.35-3.05,1.05-4.29c0.7-1.24,1.67-2.2,2.9-2.88
			s2.61-1.02,4.16-1.02c1.06,0,2.03,0.18,2.91,0.54c0.88,0.36,1.63,0.9,2.25,1.62v-8.22H519.96z M513.93,608.43
			c0.72-0.41,1.29-0.99,1.71-1.75c0.42-0.76,0.63-1.64,0.63-2.64s-0.21-1.88-0.63-2.64c-0.42-0.76-0.99-1.34-1.71-1.75
			c-0.72-0.41-1.53-0.61-2.43-0.61s-1.71,0.21-2.43,0.61c-0.72,0.41-1.29,1-1.71,1.75c-0.42,0.76-0.63,1.64-0.63,2.64
			s0.21,1.88,0.63,2.64c0.42,0.76,0.99,1.35,1.71,1.75c0.72,0.41,1.53,0.62,2.43,0.62S513.21,608.84,513.93,608.43z"/>
		<path class="st11" d="M539.88,605.23h-12.57c0.22,1.18,0.79,2.11,1.73,2.8c0.93,0.69,2.08,1.04,3.46,1.04
			c1.76,0,3.21-0.58,4.35-1.74l2.01,2.31c-0.72,0.86-1.63,1.51-2.73,1.95c-1.1,0.44-2.34,0.66-3.72,0.66
			c-1.76,0-3.31-0.35-4.65-1.05s-2.38-1.67-3.1-2.92s-1.09-2.67-1.09-4.25c0-1.56,0.35-2.96,1.06-4.21
			c0.71-1.25,1.69-2.22,2.96-2.93c1.26-0.7,2.68-1.05,4.26-1.05c1.56,0,2.96,0.34,4.19,1.04s2.19,1.66,2.88,2.91s1.04,2.7,1.04,4.33
			C539.94,604.38,539.92,604.75,539.88,605.23z M528.79,599.91c-0.83,0.71-1.33,1.66-1.52,2.83h9.09c-0.16-1.16-0.65-2.1-1.47-2.82
			c-0.82-0.72-1.84-1.08-3.06-1.08C530.64,598.84,529.62,599.2,528.79,599.91z"/>
		<path class="st11" d="M546.36,611.2c-1.3-0.7-2.31-1.67-3.04-2.92s-1.09-2.67-1.09-4.25s0.36-2.99,1.09-4.23
			c0.73-1.24,1.74-2.21,3.04-2.91c1.3-0.7,2.76-1.05,4.38-1.05c1.64,0,3.11,0.35,4.41,1.05c1.3,0.7,2.32,1.67,3.05,2.91
			c0.73,1.24,1.09,2.65,1.09,4.23s-0.37,3-1.09,4.25c-0.73,1.25-1.75,2.22-3.05,2.92s-2.77,1.05-4.41,1.05
			C549.12,612.25,547.66,611.9,546.36,611.2z M554.16,607.66c0.9-0.92,1.35-2.13,1.35-3.63s-0.45-2.71-1.35-3.63
			c-0.9-0.92-2.04-1.38-3.42-1.38c-1.38,0-2.52,0.46-3.41,1.38c-0.89,0.92-1.33,2.13-1.33,3.63s0.44,2.71,1.33,3.63
			c0.89,0.92,2.02,1.38,3.41,1.38C552.12,609.04,553.26,608.58,554.16,607.66z"/>
		<path class="st11" d="M460.34,636.45c-1.51-0.46-2.71-1.07-3.58-1.83l1.35-3.03c0.86,0.68,1.92,1.24,3.17,1.67
			c1.25,0.43,2.5,0.64,3.77,0.64c1.56,0,2.72-0.25,3.5-0.75c0.77-0.5,1.15-1.16,1.15-1.98c0-0.6-0.22-1.09-0.65-1.49
			c-0.43-0.39-0.98-0.69-1.63-0.92c-0.66-0.22-1.56-0.47-2.7-0.75c-1.6-0.38-2.9-0.76-3.88-1.14c-0.99-0.38-1.84-0.97-2.55-1.79
			c-0.71-0.81-1.06-1.91-1.06-3.29c0-1.16,0.31-2.21,0.94-3.17c0.63-0.95,1.58-1.7,2.85-2.26c1.27-0.56,2.82-0.84,4.67-0.84
			c1.28,0,2.54,0.16,3.78,0.48c1.24,0.32,2.31,0.78,3.21,1.38l-1.23,3.03c-0.92-0.54-1.88-0.95-2.88-1.23s-1.97-0.42-2.91-0.42
			c-1.54,0-2.69,0.26-3.44,0.78c-0.75,0.52-1.13,1.21-1.13,2.07c0,0.6,0.21,1.09,0.65,1.47c0.43,0.38,0.98,0.68,1.63,0.9
			c0.66,0.22,1.56,0.47,2.7,0.75c1.56,0.36,2.84,0.73,3.84,1.13c1,0.39,1.85,0.99,2.56,1.79s1.06,1.88,1.06,3.24
			c0,1.16-0.31,2.21-0.94,3.15c-0.63,0.94-1.59,1.69-2.87,2.25s-2.84,0.84-4.68,0.84C463.41,637.14,461.85,636.91,460.34,636.45z"/>
		<path class="st11" d="M486.66,635.97c-0.44,0.36-0.97,0.63-1.6,0.81c-0.63,0.18-1.29,0.27-1.99,0.27c-1.76,0-3.12-0.46-4.08-1.38
			s-1.44-2.26-1.44-4.02v-7.71h-2.64v-3h2.64v-3.66h3.75v3.66h4.29v3h-4.29v7.62c0,0.78,0.19,1.38,0.57,1.79
			c0.38,0.41,0.93,0.62,1.65,0.62c0.84,0,1.54-0.22,2.1-0.66L486.66,635.97z"/>
		<path class="st11" d="M492.03,636c-1.3-0.7-2.31-1.67-3.04-2.92s-1.09-2.67-1.09-4.25s0.36-2.99,1.09-4.23
			c0.73-1.24,1.74-2.21,3.04-2.91c1.3-0.7,2.76-1.05,4.38-1.05c1.64,0,3.11,0.35,4.41,1.05c1.3,0.7,2.31,1.67,3.05,2.91
			c0.73,1.24,1.09,2.65,1.09,4.23s-0.37,3-1.09,4.25c-0.73,1.25-1.75,2.22-3.05,2.92c-1.3,0.7-2.77,1.05-4.41,1.05
			C494.79,637.05,493.33,636.7,492.03,636z M499.83,632.46c0.9-0.92,1.35-2.13,1.35-3.63s-0.45-2.71-1.35-3.63s-2.04-1.38-3.42-1.38
			c-1.38,0-2.52,0.46-3.41,1.38c-0.89,0.92-1.33,2.13-1.33,3.63s0.44,2.71,1.33,3.63c0.89,0.92,2.02,1.38,3.41,1.38
			C497.79,633.84,498.93,633.38,499.83,632.46z"/>
		<path class="st11" d="M517.83,620.64v3.57c-0.32-0.06-0.61-0.09-0.87-0.09c-1.46,0-2.6,0.42-3.42,1.27
			c-0.82,0.85-1.23,2.08-1.23,3.68v7.77h-3.75v-16.02h3.57v2.34C513.21,621.48,515.11,620.64,517.83,620.64z"/>
		<path class="st11" d="M532.46,622.34c1.25,1.13,1.88,2.83,1.88,5.12v9.39h-3.54v-1.95c-0.46,0.7-1.12,1.24-1.96,1.61
			c-0.85,0.37-1.88,0.55-3.08,0.55s-2.25-0.21-3.15-0.62c-0.9-0.41-1.6-0.98-2.08-1.71c-0.49-0.73-0.74-1.55-0.74-2.47
			c0-1.44,0.54-2.59,1.6-3.46s2.75-1.31,5.06-1.31h4.14v-0.24c0-1.12-0.34-1.98-1-2.58c-0.67-0.6-1.67-0.9-2.99-0.9
			c-0.9,0-1.78,0.14-2.65,0.42c-0.87,0.28-1.6,0.67-2.21,1.17l-1.47-2.73c0.84-0.64,1.85-1.13,3.03-1.47
			c1.18-0.34,2.43-0.51,3.75-0.51C529.4,620.64,531.21,621.21,532.46,622.34z M529.04,633.68c0.73-0.43,1.24-1.04,1.54-1.84v-1.86
			h-3.87c-2.16,0-3.24,0.71-3.24,2.13c0,0.68,0.27,1.22,0.81,1.62c0.54,0.4,1.29,0.6,2.25,0.6
			C527.47,634.32,528.31,634.11,529.04,633.68z"/>
		<path class="st11" d="M555.18,620.82v13.59c0,5.64-2.88,8.46-8.64,8.46c-1.54,0-3-0.2-4.38-0.58c-1.38-0.39-2.52-0.96-3.42-1.7
			l1.68-2.82c0.7,0.58,1.58,1.04,2.65,1.4c1.07,0.35,2.15,0.52,3.25,0.52c1.76,0,3.05-0.4,3.87-1.2c0.82-0.8,1.23-2.02,1.23-3.66
			v-0.84c-0.64,0.7-1.42,1.23-2.34,1.59c-0.92,0.36-1.93,0.54-3.03,0.54c-1.52,0-2.9-0.33-4.13-0.98c-1.23-0.65-2.2-1.56-2.91-2.75
			c-0.71-1.18-1.06-2.53-1.06-4.05c0-1.52,0.35-2.87,1.06-4.04c0.71-1.17,1.68-2.07,2.91-2.71c1.23-0.64,2.6-0.96,4.13-0.96
			c1.16,0,2.21,0.19,3.16,0.57s1.75,0.96,2.39,1.74v-2.13H555.18z M550.13,631.67c0.91-0.85,1.37-1.96,1.37-3.32
			c0-1.34-0.46-2.43-1.37-3.27s-2.07-1.26-3.49-1.26c-1.44,0-2.62,0.42-3.52,1.26c-0.91,0.84-1.37,1.93-1.37,3.27
			c0,1.36,0.45,2.47,1.37,3.32c0.91,0.85,2.08,1.27,3.52,1.27C548.05,632.94,549.21,632.52,550.13,631.67z"/>
		<path class="st11" d="M575.1,630.03h-12.57c0.22,1.18,0.79,2.11,1.73,2.8c0.93,0.69,2.08,1.04,3.46,1.04
			c1.76,0,3.21-0.58,4.35-1.74l2.01,2.31c-0.72,0.86-1.63,1.51-2.73,1.95c-1.1,0.44-2.34,0.66-3.72,0.66
			c-1.76,0-3.31-0.35-4.65-1.05s-2.38-1.67-3.1-2.92c-0.73-1.25-1.1-2.67-1.1-4.25c0-1.56,0.36-2.96,1.07-4.21s1.69-2.22,2.96-2.93
			c1.26-0.7,2.68-1.05,4.26-1.05c1.56,0,2.96,0.34,4.18,1.04c1.23,0.69,2.19,1.66,2.88,2.91c0.69,1.25,1.04,2.7,1.04,4.33
			C575.16,629.18,575.14,629.55,575.1,630.03z M564.01,624.71c-0.83,0.71-1.33,1.66-1.51,2.83h9.09c-0.16-1.16-0.65-2.1-1.47-2.82
			s-1.84-1.08-3.06-1.08C565.86,623.64,564.84,624,564.01,624.71z"/>
	</g>
</g>
<g>
	<g>
		<path class="st11" d="M60.43,73.66l-9.15,21h-3.84l-9.18-21h4.23l6.99,16.2l7.05-16.2H60.43z"/>
		<path class="st11" d="M62.62,75.36c-0.46-0.43-0.69-0.96-0.69-1.61c0-0.64,0.23-1.17,0.69-1.6c0.46-0.43,1.03-0.65,1.71-0.65
			c0.68,0,1.25,0.21,1.71,0.62c0.46,0.41,0.69,0.92,0.69,1.54c0,0.66-0.23,1.21-0.67,1.67C65.6,75.78,65.02,76,64.33,76
			C63.65,76,63.07,75.79,62.62,75.36z M62.44,78.64h3.75v16.02h-3.75V78.64z"/>
		<path class="st11" d="M86.79,72.4v22.26h-3.6v-2.07c-0.62,0.76-1.38,1.33-2.29,1.71c-0.91,0.38-1.92,0.57-3.01,0.57
			c-1.54,0-2.93-0.34-4.16-1.02s-2.2-1.65-2.9-2.9c-0.7-1.25-1.05-2.68-1.05-4.3s0.35-3.05,1.05-4.29c0.7-1.24,1.67-2.2,2.9-2.88
			s2.61-1.02,4.16-1.02c1.06,0,2.03,0.18,2.91,0.54c0.88,0.36,1.63,0.9,2.25,1.62V72.4H86.79z M80.76,91.04
			c0.72-0.41,1.29-0.99,1.71-1.75c0.42-0.76,0.63-1.64,0.63-2.64s-0.21-1.88-0.63-2.64c-0.42-0.76-0.99-1.34-1.71-1.75
			c-0.72-0.41-1.53-0.61-2.43-0.61s-1.71,0.21-2.43,0.61c-0.72,0.41-1.29,1-1.71,1.75c-0.42,0.76-0.63,1.64-0.63,2.64
			s0.21,1.88,0.63,2.64c0.42,0.76,0.99,1.35,1.71,1.75c0.72,0.41,1.53,0.62,2.43,0.62S80.04,91.45,80.76,91.04z"/>
		<path class="st11" d="M106.71,87.85H94.14c0.22,1.18,0.79,2.11,1.73,2.8c0.93,0.69,2.08,1.04,3.46,1.04
			c1.76,0,3.21-0.58,4.35-1.74l2.01,2.31c-0.72,0.86-1.63,1.51-2.73,1.95c-1.1,0.44-2.34,0.66-3.72,0.66
			c-1.76,0-3.31-0.35-4.65-1.05s-2.38-1.67-3.1-2.92s-1.09-2.67-1.09-4.25c0-1.56,0.35-2.96,1.06-4.21
			c0.71-1.25,1.69-2.22,2.96-2.93c1.26-0.7,2.68-1.05,4.26-1.05c1.56,0,2.96,0.34,4.19,1.04s2.19,1.66,2.88,2.91s1.04,2.7,1.04,4.33
			C106.77,87,106.75,87.37,106.71,87.85z M95.63,82.53c-0.83,0.71-1.33,1.66-1.52,2.83h9.09c-0.16-1.16-0.65-2.1-1.47-2.82
			c-0.82-0.72-1.84-1.08-3.06-1.08C97.47,81.46,96.46,81.82,95.63,82.53z"/>
		<path class="st11" d="M113.19,93.82c-1.3-0.7-2.31-1.67-3.04-2.92s-1.09-2.67-1.09-4.25s0.36-2.99,1.09-4.23
			c0.73-1.24,1.74-2.21,3.04-2.91c1.3-0.7,2.76-1.05,4.38-1.05c1.64,0,3.11,0.35,4.41,1.05c1.3,0.7,2.31,1.67,3.05,2.91
			c0.73,1.24,1.09,2.65,1.09,4.23s-0.37,3-1.09,4.25c-0.73,1.25-1.75,2.22-3.05,2.92c-1.3,0.7-2.77,1.05-4.41,1.05
			C115.95,94.87,114.49,94.52,113.19,93.82z M120.99,90.28c0.9-0.92,1.35-2.13,1.35-3.63s-0.45-2.71-1.35-3.63s-2.04-1.38-3.42-1.38
			c-1.38,0-2.52,0.46-3.41,1.38c-0.89,0.92-1.33,2.13-1.33,3.63s0.44,2.71,1.33,3.63c0.89,0.92,2.02,1.38,3.41,1.38
			C118.95,91.66,120.09,91.2,120.99,90.28z"/>
		<path class="st11" d="M138.36,73.66h3.9v21h-3.9V73.66z"/>
		<path class="st11" d="M161.52,80.23c1.22,1.18,1.83,2.93,1.83,5.25v9.18h-3.75v-8.7c0-1.4-0.33-2.46-0.99-3.17
			c-0.66-0.71-1.6-1.06-2.82-1.06c-1.38,0-2.47,0.42-3.27,1.25c-0.8,0.83-1.2,2.02-1.2,3.58v8.1h-3.75V78.64h3.57v2.07
			c0.62-0.74,1.4-1.3,2.34-1.68c0.94-0.38,2-0.57,3.18-0.57C158.68,78.46,160.3,79.05,161.52,80.23z"/>
		<path class="st11" d="M181.19,79.48c1.23,0.68,2.19,1.64,2.9,2.88c0.7,1.24,1.05,2.67,1.05,4.29s-0.35,3.05-1.05,4.3
			c-0.7,1.25-1.67,2.22-2.9,2.9s-2.63,1.02-4.19,1.02c-2.16,0-3.87-0.72-5.13-2.16v7.77h-3.75V78.64h3.57v2.1
			c0.62-0.76,1.38-1.33,2.3-1.71c0.91-0.38,1.91-0.57,3.01-0.57C178.56,78.46,179.96,78.8,181.19,79.48z M179.99,90.28
			c0.89-0.92,1.33-2.13,1.33-3.63s-0.45-2.71-1.33-3.63c-0.89-0.92-2.03-1.38-3.41-1.38c-0.9,0-1.71,0.21-2.43,0.61
			c-0.72,0.41-1.29,1-1.71,1.75c-0.42,0.76-0.63,1.64-0.63,2.64s0.21,1.88,0.63,2.64c0.42,0.76,0.99,1.35,1.71,1.75
			c0.72,0.41,1.53,0.62,2.43,0.62C177.96,91.66,179.1,91.2,179.99,90.28z"/>
		<path class="st11" d="M204.21,78.64v16.02h-3.57v-2.04c-0.6,0.72-1.35,1.28-2.25,1.67s-1.87,0.58-2.91,0.58
			c-2.14,0-3.83-0.59-5.06-1.79c-1.23-1.19-1.85-2.96-1.85-5.29v-9.15h3.75v8.64c0,1.44,0.33,2.52,0.98,3.22
			c0.65,0.71,1.58,1.07,2.77,1.07c1.34,0,2.4-0.42,3.2-1.25c0.79-0.83,1.19-2.03,1.19-3.58v-8.1H204.21z"/>
		<path class="st11" d="M218.76,93.79c-0.44,0.36-0.97,0.63-1.6,0.81c-0.63,0.18-1.29,0.27-1.99,0.27c-1.76,0-3.12-0.46-4.08-1.38
			s-1.44-2.26-1.44-4.02v-7.71H207v-3h2.64V75.1h3.75v3.66h4.29v3h-4.29v7.62c0,0.78,0.19,1.38,0.57,1.79
			c0.38,0.41,0.93,0.62,1.65,0.62c0.84,0,1.54-0.22,2.1-0.66L218.76,93.79z"/>
	</g>
</g>
<g>
	<g>
		<path class="st11" d="M672.24,93.62v3.27h-15.75v-21h15.33v3.27h-11.43v5.46h10.14v3.21h-10.14v5.79H672.24z"/>
		<path class="st11" d="M690.18,82.46c1.22,1.18,1.83,2.93,1.83,5.25v9.18h-3.75v-8.7c0-1.4-0.33-2.46-0.99-3.17
			c-0.66-0.71-1.6-1.06-2.82-1.06c-1.38,0-2.47,0.42-3.27,1.25c-0.8,0.83-1.2,2.02-1.2,3.58v8.1h-3.75V80.87h3.57v2.07
			c0.62-0.74,1.4-1.3,2.34-1.68c0.94-0.38,2-0.57,3.18-0.57C687.34,80.69,688.96,81.28,690.18,82.46z"/>
		<path class="st11" d="M712.62,74.63v22.26h-3.6v-2.07c-0.62,0.76-1.38,1.33-2.29,1.71c-0.91,0.38-1.92,0.57-3.01,0.57
			c-1.54,0-2.92-0.34-4.16-1.02c-1.23-0.68-2.2-1.65-2.89-2.9c-0.7-1.25-1.05-2.68-1.05-4.3s0.35-3.05,1.05-4.29
			c0.7-1.24,1.67-2.2,2.89-2.88c1.23-0.68,2.62-1.02,4.16-1.02c1.06,0,2.03,0.18,2.91,0.54c0.88,0.36,1.63,0.9,2.25,1.62v-8.22
			H712.62z M706.59,93.28c0.72-0.41,1.29-0.99,1.71-1.75c0.42-0.76,0.63-1.64,0.63-2.64s-0.21-1.88-0.63-2.64
			c-0.42-0.76-0.99-1.34-1.71-1.75c-0.72-0.41-1.53-0.61-2.43-0.61c-0.9,0-1.71,0.21-2.43,0.61c-0.72,0.41-1.29,1-1.71,1.75
			c-0.42,0.76-0.63,1.64-0.63,2.64s0.21,1.88,0.63,2.64c0.42,0.76,0.99,1.35,1.71,1.75c0.72,0.41,1.53,0.62,2.43,0.62
			C705.06,93.89,705.87,93.69,706.59,93.28z"/>
		<path class="st11" d="M716.73,86.99h8.25v3.12h-8.25V86.99z"/>
		<path class="st11" d="M731.7,94.75c-1.62-1.63-2.43-3.96-2.43-7.01V75.89h3.9v11.7c0,4.12,1.78,6.18,5.34,6.18
			c3.54,0,5.31-2.06,5.31-6.18v-11.7h3.84v11.85c0,3.04-0.8,5.38-2.41,7.01c-1.61,1.63-3.87,2.44-6.77,2.44
			C735.58,97.19,733.32,96.38,731.7,94.75z"/>
		<path class="st11" d="M753.9,96.59c-1.24-0.34-2.23-0.77-2.97-1.29l1.44-2.85c0.72,0.48,1.58,0.87,2.59,1.16
			c1.01,0.29,2,0.44,2.99,0.44c2.24,0,3.36-0.59,3.36-1.77c0-0.56-0.28-0.95-0.85-1.17c-0.57-0.22-1.49-0.43-2.75-0.63
			c-1.32-0.2-2.4-0.43-3.22-0.69c-0.83-0.26-1.55-0.71-2.16-1.36c-0.61-0.65-0.92-1.56-0.92-2.72c0-1.52,0.63-2.73,1.91-3.64
			c1.27-0.91,2.98-1.37,5.14-1.37c1.1,0,2.2,0.13,3.3,0.38c1.1,0.25,2,0.58,2.7,1l-1.44,2.85c-1.36-0.8-2.89-1.2-4.59-1.2
			c-1.1,0-1.93,0.17-2.5,0.5c-0.57,0.33-0.85,0.76-0.85,1.3c0,0.6,0.3,1.03,0.92,1.28c0.61,0.25,1.55,0.49,2.83,0.71
			c1.28,0.2,2.33,0.43,3.15,0.69c0.82,0.26,1.53,0.7,2.12,1.32s0.88,1.5,0.88,2.64c0,1.5-0.65,2.7-1.95,3.6
			c-1.3,0.9-3.07,1.35-5.31,1.35C756.41,97.1,755.14,96.93,753.9,96.59z"/>
		<path class="st11" d="M783.21,90.08h-12.57c0.22,1.18,0.79,2.11,1.72,2.8c0.93,0.69,2.08,1.04,3.46,1.04
			c1.76,0,3.21-0.58,4.35-1.74l2.01,2.31c-0.72,0.86-1.63,1.51-2.73,1.95c-1.1,0.44-2.34,0.66-3.72,0.66
			c-1.76,0-3.31-0.35-4.65-1.05s-2.38-1.67-3.1-2.92c-0.73-1.25-1.09-2.67-1.09-4.25c0-1.56,0.35-2.96,1.06-4.21s1.7-2.22,2.96-2.93
			c1.26-0.7,2.68-1.05,4.26-1.05c1.56,0,2.96,0.34,4.19,1.04c1.23,0.69,2.19,1.66,2.88,2.91c0.69,1.25,1.04,2.7,1.04,4.33
			C783.27,89.23,783.25,89.6,783.21,90.08z M772.13,84.76c-0.83,0.71-1.33,1.66-1.51,2.83h9.09c-0.16-1.16-0.65-2.1-1.47-2.82
			c-0.82-0.72-1.84-1.08-3.06-1.08C773.97,83.69,772.96,84.05,772.13,84.76z"/>
		<path class="st11" d="M796.14,80.69v3.57c-0.32-0.06-0.61-0.09-0.87-0.09c-1.46,0-2.6,0.42-3.42,1.27
			c-0.82,0.85-1.23,2.08-1.23,3.68v7.77h-3.75V80.87h3.57v2.34C791.52,81.53,793.42,80.69,796.14,80.69z"/>
	</g>
</g>
<g>
	<g>
		<path class="st11" d="M1019.24,151.26v3.27h-15.75v-21h15.33v3.27h-11.43v5.46h10.14v3.21h-10.14v5.79H1019.24z"/>
		<path class="st11" d="M1037.18,140.1c1.22,1.18,1.83,2.93,1.83,5.25v9.18h-3.75v-8.7c0-1.4-0.33-2.46-0.99-3.17
			c-0.66-0.71-1.6-1.06-2.82-1.06c-1.38,0-2.47,0.42-3.27,1.25c-0.8,0.83-1.2,2.02-1.2,3.58v8.1h-3.75v-16.02h3.57v2.07
			c0.62-0.74,1.4-1.3,2.34-1.68c0.94-0.38,2-0.57,3.18-0.57C1034.34,138.33,1035.96,138.92,1037.18,140.1z"/>
		<path class="st11" d="M1059.62,132.27v22.26h-3.6v-2.07c-0.62,0.76-1.38,1.33-2.29,1.71c-0.91,0.38-1.92,0.57-3.01,0.57
			c-1.54,0-2.92-0.34-4.16-1.02c-1.23-0.68-2.2-1.65-2.89-2.9c-0.7-1.25-1.05-2.68-1.05-4.3s0.35-3.05,1.05-4.29
			c0.7-1.24,1.67-2.2,2.89-2.88c1.23-0.68,2.62-1.02,4.16-1.02c1.06,0,2.03,0.18,2.91,0.54c0.88,0.36,1.63,0.9,2.25,1.62v-8.22
			H1059.62z M1053.59,150.92c0.72-0.41,1.29-0.99,1.71-1.75c0.42-0.76,0.63-1.64,0.63-2.64s-0.21-1.88-0.63-2.64
			c-0.42-0.76-0.99-1.34-1.71-1.75c-0.72-0.41-1.53-0.61-2.43-0.61c-0.9,0-1.71,0.21-2.43,0.61c-0.72,0.41-1.29,1-1.71,1.75
			c-0.42,0.76-0.63,1.64-0.63,2.64s0.21,1.88,0.63,2.64c0.42,0.76,0.99,1.35,1.71,1.75c0.72,0.41,1.53,0.62,2.43,0.62
			C1052.06,151.53,1052.87,151.33,1053.59,150.92z"/>
		<path class="st11" d="M1063.73,144.63h8.25v3.12h-8.25V144.63z"/>
		<path class="st11" d="M1078.7,152.39c-1.62-1.63-2.43-3.96-2.43-7.01v-11.85h3.9v11.7c0,4.12,1.78,6.18,5.34,6.18
			c3.54,0,5.31-2.06,5.31-6.18v-11.7h3.84v11.85c0,3.04-0.8,5.38-2.41,7.01c-1.61,1.63-3.87,2.44-6.77,2.44
			C1082.58,154.83,1080.32,154.02,1078.7,152.39z"/>
		<path class="st11" d="M1100.9,154.23c-1.24-0.34-2.23-0.77-2.97-1.29l1.44-2.85c0.72,0.48,1.58,0.87,2.59,1.16
			c1.01,0.29,2,0.44,2.99,0.44c2.24,0,3.36-0.59,3.36-1.77c0-0.56-0.28-0.95-0.85-1.17c-0.57-0.22-1.49-0.43-2.75-0.63
			c-1.32-0.2-2.4-0.43-3.22-0.69c-0.83-0.26-1.55-0.71-2.16-1.36c-0.61-0.65-0.92-1.56-0.92-2.72c0-1.52,0.63-2.73,1.91-3.64
			c1.27-0.91,2.98-1.37,5.14-1.37c1.1,0,2.2,0.13,3.3,0.38c1.1,0.25,2,0.58,2.7,1l-1.44,2.85c-1.36-0.8-2.89-1.2-4.59-1.2
			c-1.1,0-1.93,0.17-2.5,0.5c-0.57,0.33-0.85,0.76-0.85,1.3c0,0.6,0.3,1.03,0.92,1.28c0.61,0.25,1.55,0.49,2.83,0.71
			c1.28,0.2,2.33,0.43,3.15,0.69c0.82,0.26,1.53,0.7,2.12,1.32s0.88,1.5,0.88,2.64c0,1.5-0.65,2.7-1.95,3.6
			c-1.3,0.9-3.07,1.35-5.31,1.35C1103.41,154.74,1102.14,154.57,1100.9,154.23z"/>
		<path class="st11" d="M1130.21,147.72h-12.57c0.22,1.18,0.79,2.11,1.72,2.8c0.93,0.69,2.08,1.04,3.46,1.04
			c1.76,0,3.21-0.58,4.35-1.74l2.01,2.31c-0.72,0.86-1.63,1.51-2.73,1.95c-1.1,0.44-2.34,0.66-3.72,0.66
			c-1.76,0-3.31-0.35-4.65-1.05s-2.38-1.67-3.1-2.92c-0.73-1.25-1.09-2.67-1.09-4.25c0-1.56,0.35-2.96,1.06-4.21s1.7-2.22,2.96-2.93
			c1.26-0.7,2.68-1.05,4.26-1.05c1.56,0,2.96,0.34,4.19,1.04c1.23,0.69,2.19,1.66,2.88,2.91c0.69,1.25,1.04,2.7,1.04,4.33
			C1130.27,146.87,1130.25,147.24,1130.21,147.72z M1119.12,142.4c-0.83,0.71-1.33,1.66-1.51,2.83h9.09
			c-0.16-1.16-0.65-2.1-1.47-2.82c-0.82-0.72-1.84-1.08-3.06-1.08C1120.97,141.33,1119.95,141.69,1119.12,142.4z"/>
		<path class="st11" d="M1143.14,138.33v3.57c-0.32-0.06-0.61-0.09-0.87-0.09c-1.46,0-2.6,0.42-3.42,1.27
			c-0.82,0.85-1.23,2.08-1.23,3.68v7.77h-3.75v-16.02h3.57v2.34C1138.52,139.17,1140.42,138.33,1143.14,138.33z"/>
	</g>
</g>
<g>
	<g>
		<path class="st11" d="M675.24,592.05v3.27h-15.75v-21h15.33v3.27h-11.43v5.46h10.14v3.21h-10.14v5.79H675.24z"/>
		<path class="st11" d="M693.18,580.89c1.22,1.18,1.83,2.93,1.83,5.25v9.18h-3.75v-8.7c0-1.4-0.33-2.46-0.99-3.17
			c-0.66-0.71-1.6-1.06-2.82-1.06c-1.38,0-2.47,0.42-3.27,1.25c-0.8,0.83-1.2,2.02-1.2,3.58v8.1h-3.75V579.3h3.57v2.07
			c0.62-0.74,1.4-1.3,2.34-1.68c0.94-0.38,2-0.57,3.18-0.57C690.34,579.12,691.96,579.71,693.18,580.89z"/>
		<path class="st11" d="M715.62,573.06v22.26h-3.6v-2.07c-0.62,0.76-1.38,1.33-2.29,1.71c-0.91,0.38-1.92,0.57-3.01,0.57
			c-1.54,0-2.92-0.34-4.16-1.02c-1.23-0.68-2.2-1.65-2.89-2.9c-0.7-1.25-1.05-2.68-1.05-4.3s0.35-3.05,1.05-4.29
			c0.7-1.24,1.67-2.2,2.89-2.88c1.23-0.68,2.62-1.02,4.16-1.02c1.06,0,2.03,0.18,2.91,0.54c0.88,0.36,1.63,0.9,2.25,1.62v-8.22
			H715.62z M709.59,591.7c0.72-0.41,1.29-0.99,1.71-1.75c0.42-0.76,0.63-1.64,0.63-2.64s-0.21-1.88-0.63-2.64
			c-0.42-0.76-0.99-1.34-1.71-1.75c-0.72-0.41-1.53-0.61-2.43-0.61c-0.9,0-1.71,0.21-2.43,0.61c-0.72,0.41-1.29,1-1.71,1.75
			c-0.42,0.76-0.63,1.64-0.63,2.64s0.21,1.88,0.63,2.64c0.42,0.76,0.99,1.35,1.71,1.75c0.72,0.41,1.53,0.62,2.43,0.62
			C708.06,592.32,708.87,592.11,709.59,591.7z"/>
		<path class="st11" d="M719.73,585.42h8.25v3.12h-8.25V585.42z"/>
		<path class="st11" d="M734.7,593.17c-1.62-1.63-2.43-3.96-2.43-7.01v-11.85h3.9v11.7c0,4.12,1.78,6.18,5.34,6.18
			c3.54,0,5.31-2.06,5.31-6.18v-11.7h3.84v11.85c0,3.04-0.8,5.38-2.41,7.01c-1.61,1.63-3.87,2.44-6.77,2.44
			C738.58,595.62,736.32,594.8,734.7,593.17z"/>
		<path class="st11" d="M756.9,595.02c-1.24-0.34-2.23-0.77-2.97-1.29l1.44-2.85c0.72,0.48,1.58,0.87,2.59,1.16
			c1.01,0.29,2,0.44,2.99,0.44c2.24,0,3.36-0.59,3.36-1.77c0-0.56-0.28-0.95-0.85-1.17c-0.57-0.22-1.49-0.43-2.75-0.63
			c-1.32-0.2-2.4-0.43-3.22-0.69c-0.83-0.26-1.55-0.71-2.16-1.36c-0.61-0.65-0.92-1.56-0.92-2.72c0-1.52,0.63-2.73,1.91-3.64
			c1.27-0.91,2.98-1.37,5.14-1.37c1.1,0,2.2,0.13,3.3,0.38c1.1,0.25,2,0.58,2.7,1l-1.44,2.85c-1.36-0.8-2.89-1.2-4.59-1.2
			c-1.1,0-1.93,0.17-2.5,0.5c-0.57,0.33-0.85,0.76-0.85,1.3c0,0.6,0.3,1.03,0.92,1.28c0.61,0.25,1.55,0.49,2.83,0.71
			c1.28,0.2,2.33,0.43,3.15,0.69c0.82,0.26,1.53,0.7,2.12,1.32s0.88,1.5,0.88,2.64c0,1.5-0.65,2.7-1.95,3.6
			c-1.3,0.9-3.07,1.35-5.31,1.35C759.41,595.53,758.14,595.36,756.9,595.02z"/>
		<path class="st11" d="M786.21,588.51h-12.57c0.22,1.18,0.79,2.11,1.72,2.8c0.93,0.69,2.08,1.04,3.46,1.04
			c1.76,0,3.21-0.58,4.35-1.74l2.01,2.31c-0.72,0.86-1.63,1.51-2.73,1.95c-1.1,0.44-2.34,0.66-3.72,0.66
			c-1.76,0-3.31-0.35-4.65-1.05s-2.38-1.67-3.1-2.92c-0.73-1.25-1.09-2.67-1.09-4.25c0-1.56,0.35-2.96,1.06-4.21s1.7-2.22,2.96-2.93
			c1.26-0.7,2.68-1.05,4.26-1.05c1.56,0,2.96,0.34,4.19,1.04c1.23,0.69,2.19,1.66,2.88,2.91c0.69,1.25,1.04,2.7,1.04,4.33
			C786.27,587.66,786.25,588.03,786.21,588.51z M775.13,583.18c-0.83,0.71-1.33,1.66-1.51,2.83h9.09c-0.16-1.16-0.65-2.1-1.47-2.82
			c-0.82-0.72-1.84-1.08-3.06-1.08C776.97,582.12,775.96,582.47,775.13,583.18z"/>
		<path class="st11" d="M799.14,579.12v3.57c-0.32-0.06-0.61-0.09-0.87-0.09c-1.46,0-2.6,0.42-3.42,1.27
			c-0.82,0.85-1.23,2.08-1.23,3.68v7.77h-3.75V579.3h3.57v2.34C794.52,579.96,796.42,579.12,799.14,579.12z"/>
	</g>
</g>
<g>
	<g>
		<path class="st11" d="M1019.82,527.07v3.27h-15.75v-21h15.33v3.27h-11.43v5.46h10.14v3.21h-10.14v5.79H1019.82z"/>
		<path class="st11" d="M1037.76,515.91c1.22,1.18,1.83,2.93,1.83,5.25v9.18h-3.75v-8.7c0-1.4-0.33-2.46-0.99-3.17
			c-0.66-0.71-1.6-1.06-2.82-1.06c-1.38,0-2.47,0.42-3.27,1.25c-0.8,0.83-1.2,2.02-1.2,3.58v8.1h-3.75v-16.02h3.57v2.07
			c0.62-0.74,1.4-1.3,2.34-1.68c0.94-0.38,2-0.57,3.18-0.57C1034.92,514.14,1036.54,514.73,1037.76,515.91z"/>
		<path class="st11" d="M1060.2,508.08v22.26h-3.6v-2.07c-0.62,0.76-1.38,1.33-2.29,1.71c-0.91,0.38-1.92,0.57-3.01,0.57
			c-1.54,0-2.92-0.34-4.16-1.02c-1.23-0.68-2.2-1.65-2.89-2.9c-0.7-1.25-1.05-2.68-1.05-4.3s0.35-3.05,1.05-4.29
			c0.7-1.24,1.67-2.2,2.89-2.88c1.23-0.68,2.62-1.02,4.16-1.02c1.06,0,2.03,0.18,2.91,0.54c0.88,0.36,1.63,0.9,2.25,1.62v-8.22
			H1060.2z M1054.17,526.72c0.72-0.41,1.29-0.99,1.71-1.75c0.42-0.76,0.63-1.64,0.63-2.64s-0.21-1.88-0.63-2.64
			c-0.42-0.76-0.99-1.34-1.71-1.75c-0.72-0.41-1.53-0.61-2.43-0.61c-0.9,0-1.71,0.21-2.43,0.61c-0.72,0.41-1.29,1-1.71,1.75
			c-0.42,0.76-0.63,1.64-0.63,2.64s0.21,1.88,0.63,2.64c0.42,0.76,0.99,1.35,1.71,1.75c0.72,0.41,1.53,0.62,2.43,0.62
			C1052.64,527.34,1053.45,527.13,1054.17,526.72z"/>
		<path class="st11" d="M1064.31,520.44h8.25v3.12h-8.25V520.44z"/>
		<path class="st11" d="M1079.28,528.19c-1.62-1.63-2.43-3.96-2.43-7.01v-11.85h3.9v11.7c0,4.12,1.78,6.18,5.34,6.18
			c3.54,0,5.31-2.06,5.31-6.18v-11.7h3.84v11.85c0,3.04-0.8,5.38-2.41,7.01c-1.61,1.63-3.87,2.44-6.77,2.44
			C1083.16,530.64,1080.9,529.82,1079.28,528.19z"/>
		<path class="st11" d="M1101.48,530.04c-1.24-0.34-2.23-0.77-2.97-1.29l1.44-2.85c0.72,0.48,1.58,0.87,2.59,1.16
			c1.01,0.29,2,0.44,2.99,0.44c2.24,0,3.36-0.59,3.36-1.77c0-0.56-0.28-0.95-0.85-1.17c-0.57-0.22-1.49-0.43-2.75-0.63
			c-1.32-0.2-2.4-0.43-3.22-0.69c-0.83-0.26-1.55-0.71-2.16-1.36c-0.61-0.65-0.92-1.56-0.92-2.72c0-1.52,0.63-2.73,1.91-3.64
			c1.27-0.91,2.98-1.37,5.14-1.37c1.1,0,2.2,0.13,3.3,0.38c1.1,0.25,2,0.58,2.7,1l-1.44,2.85c-1.36-0.8-2.89-1.2-4.59-1.2
			c-1.1,0-1.93,0.17-2.5,0.5c-0.57,0.33-0.85,0.76-0.85,1.3c0,0.6,0.3,1.03,0.92,1.28c0.61,0.25,1.55,0.49,2.83,0.71
			c1.28,0.2,2.33,0.43,3.15,0.69c0.82,0.26,1.53,0.7,2.12,1.32s0.88,1.5,0.88,2.64c0,1.5-0.65,2.7-1.95,3.6
			c-1.3,0.9-3.07,1.35-5.31,1.35C1103.99,530.55,1102.72,530.38,1101.48,530.04z"/>
		<path class="st11" d="M1130.79,523.53h-12.57c0.22,1.18,0.79,2.11,1.72,2.8c0.93,0.69,2.08,1.04,3.46,1.04
			c1.76,0,3.21-0.58,4.35-1.74l2.01,2.31c-0.72,0.86-1.63,1.51-2.73,1.95c-1.1,0.44-2.34,0.66-3.72,0.66
			c-1.76,0-3.31-0.35-4.65-1.05s-2.38-1.67-3.1-2.92c-0.73-1.25-1.09-2.67-1.09-4.25c0-1.56,0.35-2.96,1.06-4.21s1.7-2.22,2.96-2.93
			c1.26-0.7,2.68-1.05,4.26-1.05c1.56,0,2.96,0.34,4.19,1.04c1.23,0.69,2.19,1.66,2.88,2.91c0.69,1.25,1.04,2.7,1.04,4.33
			C1130.85,522.68,1130.83,523.05,1130.79,523.53z M1119.7,518.2c-0.83,0.71-1.33,1.66-1.51,2.83h9.09
			c-0.16-1.16-0.65-2.1-1.47-2.82c-0.82-0.72-1.84-1.08-3.06-1.08C1121.55,517.14,1120.53,517.49,1119.7,518.2z"/>
		<path class="st11" d="M1143.72,514.14v3.57c-0.32-0.06-0.61-0.09-0.87-0.09c-1.46,0-2.6,0.42-3.42,1.27
			c-0.82,0.85-1.23,2.08-1.23,3.68v7.77h-3.75v-16.02h3.57v2.34C1139.1,514.98,1141,514.14,1143.72,514.14z"/>
	</g>
</g>
<line class="st10" x1="1072.55" y1="293.85" x2="1072.55" y2="370.39"/>
<line class="st8" x1="1012.34" y1="327.21" x2="1072.4" y2="327.21"/>
<line class="st10" x1="723.97" y1="234.77" x2="723.97" y2="283.21"/>
<line class="st10" x1="723.97" y1="366.53" x2="723.97" y2="430.98"/>
<g>
	<path class="st4" d="M749.85,165.32L749.85,165.32l-22.21-22.21c-1.22-1.22-2.95-1.73-4.71-1.34c-0.94,0.21-1.78,0.74-2.46,1.42
		l-22.11,22.11l-0.03,0.03c-1.38,1.4-1.89,3.5-1.15,5.31c0.81,1.96,2.55,3.14,4.49,3.22c0.05,0,0.1,0.01,0.15,0.01h0.88v16.34
		c0,3.24,2.63,5.87,5.87,5.87h8.69c0.88,0,1.6-0.72,1.6-1.6v-12.81c0-1.48,1.2-2.68,2.68-2.68h5.12c1.48,0,2.68,1.2,2.68,2.68v12.81
		c0,0.88,0.72,1.6,1.6,1.6h8.69c3.24,0,5.87-2.63,5.87-5.87v-16.34h0.82c1.97,0,3.78-1.13,4.66-3.1
		C751.8,168.93,751.28,166.75,749.85,165.32z M748.09,169.31c-0.27,0.86-0.99,1.37-1.79,1.37h-2.41c-0.88,0-1.6,0.72-1.6,1.6v17.94
		c0,1.48-1.2,2.68-2.68,2.68h-7.09c0,0,0,0,0,0v-11.21c0-3.24-2.63-5.87-5.87-5.87h-5.12c-3.24,0-5.87,2.63-5.87,5.87v11.21
		c0,0,0,0,0,0h-7.09c-1.48,0-2.68-1.2-2.68-2.68v-17.93c0-0.88-0.72-1.6-1.6-1.6h-2.37c-0.02,0-0.05,0-0.07,0
		c-0.79-0.01-1.51-0.53-1.75-1.39c-0.17-0.61,0.05-1.27,0.5-1.72l0,0l0,0l22.21-22.21c0.34-0.34,0.8-0.53,1.29-0.53
		c0.49,0,0.94,0.19,1.29,0.53l22.2,22.2l0.01,0.01C748.06,168.02,748.29,168.7,748.09,169.31z"/>
</g>
<g>
	<g>
		<g>
			<path class="st4" d="M708.05,483.2c-1.4-1.45-3.33-2.26-5.34-2.25h-0.38c-2.01,0-3.94,0.81-5.33,2.25
				c-1.32,1.35-2.01,3.19-1.93,5.07l0.15,3.35c0.22,3.83,3.43,6.81,7.26,6.74h0.09c3.84,0.07,7.04-2.91,7.26-6.74l0.15-3.35
				C710.06,486.39,709.36,484.56,708.05,483.2z M707.34,491.52c-0.17,2.5-2.28,4.42-4.78,4.35h-0.09c-2.5,0.06-4.61-1.86-4.78-4.35
				l-0.04-1.02c2.37-0.11,4.65-0.96,6.5-2.44c0.76,1.13,1.92,1.94,3.24,2.27L707.34,491.52z M705.78,485.64
				c-0.07-0.53-0.47-0.96-1-1.06c-0.52-0.11-1.06,0.13-1.32,0.6c-0.02,0.03-1.56,2.47-5.92,2.84c-0.01-1.15,0.43-2.26,1.23-3.09
				c0.93-0.96,2.21-1.5,3.54-1.49h0.38c1.33,0,2.61,0.54,3.54,1.49c0.73,0.76,1.16,1.75,1.21,2.79
				C706.6,487.34,705.98,486.56,705.78,485.64z"/>
		</g>
	</g>
	<g>
		<g>
			<path class="st4" d="M727.26,485.36c-1.33-1.29-3.45-1.29-4.79,0l-13.89,13.89c-0.23,0.23-0.55,0.36-0.88,0.36h-12.65
				c-3.43,0-6.21,2.79-6.22,6.22v17.41c0,2.06,1.67,3.73,3.73,3.73c0.42,0,0.84-0.07,1.24-0.21v1.46c0,0.69,0.56,1.24,1.24,1.24
				h14.93c0.69,0,1.24-0.56,1.24-1.24v-20.17c0-0.31,0.12-0.62,0.33-0.85l15.78-16.97C728.66,488.86,728.62,486.68,727.26,485.36z
				 M725.56,488.48c0,0-0.01,0.01-0.01,0.01l-15.82,17.01c-0.64,0.69-1,1.6-0.99,2.54v18.92H696.3v-18.66
				c0-0.69-0.56-1.24-1.24-1.24s-1.24,0.56-1.24,1.24v14.93c0,0.69-0.56,1.24-1.24,1.24c-0.69,0-1.24-0.56-1.24-1.24v-17.41
				c0-2.06,1.67-3.73,3.73-3.73h12.65c0.99,0,1.94-0.39,2.64-1.09l13.89-13.89c0.38-0.36,0.97-0.36,1.35,0
				C725.95,487.5,725.94,488.11,725.56,488.48z"/>
		</g>
	</g>
	<g>
		<g>
			<path class="st4" d="M702.52,503.34c-0.69,0-1.24,0.56-1.24,1.24v14.93c0,0.69,0.56,1.24,1.24,1.24c0.69,0,1.24-0.56,1.24-1.24
				v-14.93C703.76,503.89,703.2,503.34,702.52,503.34z"/>
		</g>
	</g>
	<g>
		<g>
			<path class="st4" d="M759.79,467.27h-43.66c-2.04,0.02-3.68,1.69-3.67,3.73v18.66c0,0.69,0.56,1.24,1.24,1.24
				c0.69,0,1.24-0.56,1.24-1.24v-14.93h46.02v29.85c0.02,0.67-0.51,1.23-1.18,1.24h-42.44c-0.69,0-1.24,0.56-1.24,1.24
				c0,0.69,0.56,1.24,1.24,1.24h42.44c2.04-0.02,3.68-1.69,3.67-3.73V471C763.47,468.96,761.83,467.29,759.79,467.27z
				 M760.97,472.24h-46.02V471c-0.02-0.67,0.51-1.23,1.18-1.24h43.66c0.67,0.02,1.2,0.57,1.18,1.24V472.24z"/>
		</g>
	</g>
	<g>
		<g>
			<path class="st4" d="M757.24,483.13c-0.69,0-1.24,0.56-1.24,1.24v17.72c0,0.69,0.56,1.24,1.24,1.24s1.24-0.56,1.24-1.24v-17.72
				C758.48,483.68,757.93,483.13,757.24,483.13z"/>
		</g>
	</g>
	<g>
		<g>
			<path class="st4" d="M752.27,490.9c-0.69,0-1.24,0.56-1.24,1.24v9.95c0,0.69,0.56,1.24,1.24,1.24c0.69,0,1.24-0.56,1.24-1.24
				v-9.95C753.51,491.46,752.95,490.9,752.27,490.9z"/>
		</g>
	</g>
	<g>
		<g>
			<path class="st4" d="M747.29,488.41c-0.69,0-1.24,0.56-1.24,1.24v12.44c0,0.69,0.56,1.24,1.24,1.24s1.24-0.56,1.24-1.24v-12.44
				C748.53,488.97,747.98,488.41,747.29,488.41z"/>
		</g>
	</g>
	<g>
		<g>
			<path class="st4" d="M742.32,495.87c-0.69,0-1.24,0.56-1.24,1.24v4.98c0,0.69,0.56,1.24,1.24,1.24c0.69,0,1.24-0.56,1.24-1.24
				v-4.98C743.56,496.43,743,495.87,742.32,495.87z"/>
		</g>
	</g>
	<g>
		<g>
			<path class="st4" d="M757.93,477.43c-0.57-0.38-1.34-0.23-1.73,0.34l-4.25,6.37l-3.92-2.94c-0.55-0.41-1.33-0.31-1.74,0.24
				c-0.05,0.06-0.09,0.13-0.12,0.2l-4.84,9.69l-4.73,3.55c-0.55,0.41-0.66,1.19-0.25,1.74c0.41,0.55,1.19,0.66,1.74,0.25l4.98-3.73
				c0.16-0.12,0.28-0.27,0.37-0.44l4.31-8.62l3.78,2.84c0.55,0.41,1.33,0.3,1.74-0.25c0.01-0.02,0.03-0.04,0.04-0.06l4.98-7.46
				C758.66,478.58,758.5,477.81,757.93,477.43z"/>
		</g>
	</g>
	<g>
		<g>
			<path class="st4" d="M733.61,477.22h-14.93c-0.69,0-1.24,0.56-1.24,1.24c0,0.69,0.56,1.24,1.24,1.24h14.93
				c0.69,0,1.24-0.56,1.24-1.24C734.85,477.77,734.3,477.22,733.61,477.22z"/>
		</g>
	</g>
	<g>
		<g>
			<path class="st4" d="M741.07,477.22h-2.49c-0.69,0-1.24,0.56-1.24,1.24c0,0.69,0.56,1.24,1.24,1.24h2.49
				c0.69,0,1.24-0.56,1.24-1.24C742.32,477.77,741.76,477.22,741.07,477.22z"/>
		</g>
	</g>
</g>
<g>
	<path class="st4" d="M1100.5,439.85h-0.47v-4.68l6.06-19.17c0.25-0.79-0.19-1.64-0.98-1.89c-0.79-0.25-1.64,0.19-1.89,0.98
		l-5.8,18.34h-11.66c-1.44-0.9-3.13-1.42-4.95-1.42c-4.44,0-9.94,0.93-13.23-2.75l-3.34-3.72v-2.02c0-1.66-1.13-3.07-2.66-3.5v-0.75
		c2.7-0.22,4.82-2.48,4.82-5.23v-8.23c2.65-0.74,4.37-3.48,3.84-6.19c-0.49-2.54-2.83-4.4-5.4-4.4h-11.23
		c-4.86,0-8.82,3.96-8.82,8.82c0,1.43-0.2,2.86-0.59,4.24l-1.64,5.8c-0.72,2.57,1.27,5.2,3.93,5.2h3.55l-0.1,0.6
		c-3.3-0.03-6.2,2.25-6.55,5.63l-2.67,26.09c-0.13,1.35-0.32,2.66-0.18,4.02c0.28,2.57,1.5,4.98,3.37,6.76l3.05,1.71
		c0.82,0.46,1.73,0.71,2.67,0.75l16.19,0.55c0.85,0,1.53-0.7,1.5-1.55c-0.02-0.82-0.74-1.46-1.57-1.46h-14.29
		c-4.94,0-8.38-4.36-7.9-9.11h27.75l3.01-3.49c0,0,26.67-0.22,27.65-0.19v-8.23C1102,440.53,1101.33,439.85,1100.5,439.85z
		 M1097.02,436.44v3.41h-6.98c-0.2-1.24-0.64-2.39-1.28-3.41H1097.02z M1082.32,435.2c2.29,0.56,4.1,2.37,4.66,4.66h-4.66V435.2z
		 M1063.41,414.04c0,1.24-1.01,2.24-2.24,2.24h-1.08c-0.83,0-1.5,0.67-1.5,1.5v2.1h-5.57l0.13-0.77c1.65-0.5,2.85-2.03,2.85-3.83
		v-8.42c0-0.47,0.38-0.85,0.85-0.85h6.56V414.04z M1046.51,416.29c-0.34,0-0.65-0.16-0.86-0.43c-0.21-0.27-0.27-0.62-0.18-0.95
		l1.64-5.8c0.47-1.65,0.7-3.35,0.7-5.07c0-3.2,2.61-5.81,5.81-5.81h11.23c3.1,0,3.25,4.77,0.1,4.77h-8.12
		c-2.13,0-3.86,1.73-3.86,3.86v8.42c0,0.55-0.45,1-1,1H1046.51z M1071.35,450.26h-7.1v-8.56c2.28,1.12,4.63,1.16,7.1,1.16V450.26z
		 M1069.22,439.85c-5.04,0-7.94-4.82-10.86-8.24c-0.54-0.63-1.49-0.7-2.12-0.16c-0.63,0.54-0.7,1.49-0.16,2.12
		c1.7,1.99,3.32,4.12,5.17,5.98v10.72h-17.33l2.5-24.44c0.17-1.67,1.56-2.93,3.24-2.93h2.01c-0.81,1.52-0.89,3.31-0.21,4.88
		c0.33,0.76,1.22,1.11,1.98,0.78c0.76-0.33,1.11-1.22,0.78-1.98c-1.17-2.68,2.49-4.97,4.42-2.8l6.72,7.49
		c2.24,2.5,5.39,3.74,8.71,3.75c1.75,0.01,3.5,0,5.26,0v4.84L1069.22,439.85z M1099,446.77h-24.64v-3.91l24.64,0V446.77z"/>
</g>
<g class="st3">
	<path class="st4" d="M168.07,439.77c-0.45-0.26-1-0.27-1.46-0.02l-18.37,10.11v-3.52c0-3.73-3.04-6.77-6.77-6.77h-3.83
		c5.18-3.32,8.62-9.13,8.62-15.73c0-3.32-0.88-6.57-2.55-9.42c-0.41-0.7-1.31-0.94-2.02-0.53c-0.7,0.41-0.94,1.31-0.53,2.02
		c1.4,2.4,2.14,5.14,2.14,7.93c0,8.68-7.06,15.73-15.73,15.73s-15.73-7.06-15.73-15.73c0-8.68,7.06-15.73,15.73-15.73
		c3.69,0,7.29,1.31,10.11,3.68c0.62,0.52,1.55,0.44,2.08-0.18c0.52-0.62,0.44-1.55-0.18-2.08c-3.35-2.82-7.62-4.37-12.01-4.37
		c-9.12,0-16.74,6.57-18.36,15.23c-2.48-3.01-6.24-4.94-10.45-4.94c-7.46,0-13.53,6.07-13.53,13.53c0,4.28,2,8.1,5.12,10.59
		c-3.73,0-6.76,3.04-6.76,6.77v0.24h-6l-7.1-3.36c-0.93-0.48-2.14,0.28-2.1,1.33v18.29c-0.03,1.05,1.17,1.81,2.1,1.33l7.1-3.36h6
		v23.24c0,3.73,3.04,6.77,6.77,6.77h38.37c0.81,0,1.47-0.66,1.47-1.47c0-0.81-0.66-1.47-1.47-1.47H90.36
		c-2.11,0-3.82-1.72-3.82-3.82v-37.71c0-2.11,1.72-3.82,3.82-3.82h51.11c2.11,0,3.82,1.72,3.82,3.82v37.71
		c0,2.11-1.72,3.82-3.82,3.82h-6.84c-0.81,0-1.47,0.66-1.47,1.47c0,0.81,0.66,1.47,1.47,1.47h6.84c3.73,0,6.77-3.04,6.77-6.77v-11.7
		l18.37,10.11c0.94,0.55,2.22-0.2,2.18-1.29v-40.13C168.79,440.52,168.52,440.03,168.07,439.77L168.07,439.77z M71.34,446.87
		l4.45,2.11v9.42l-4.45,2.11V446.87z M78.73,457.86v-8.33h4.86v8.33H78.73z M88.18,428.98c0-5.84,4.75-10.59,10.59-10.59
		c5.84,0,10.59,4.75,10.59,10.59s-4.75,10.59-10.59,10.59C92.93,439.56,88.18,434.81,88.18,428.98z M107.19,439.56
		c1.98-1.58,3.51-3.7,4.37-6.15c1.49,2.48,3.53,4.59,5.96,6.15H107.19z M165.85,478.68l-17.61-9.69v-15.76l17.61-9.69V478.68z"/>
	<path class="st4" d="M120.06,423.83c0,4.14,3.37,7.51,7.51,7.51c4.14,0,7.51-3.37,7.51-7.51s-3.37-7.51-7.51-7.51
		S120.06,419.69,120.06,423.83z M132.14,423.83c0,2.52-2.05,4.57-4.57,4.57c-2.52,0-4.57-2.05-4.57-4.57c0-2.52,2.05-4.57,4.57-4.57
		C130.09,419.26,132.14,421.31,132.14,423.83z"/>
	<path class="st4" d="M98.77,434.29c2.93,0,5.31-2.38,5.31-5.31s-2.38-5.31-5.31-5.31c-2.93,0-5.31,2.38-5.31,5.31
		C93.46,431.91,95.84,434.29,98.77,434.29z M98.77,426.62c1.3,0,2.36,1.06,2.36,2.36c0,1.3-1.06,2.36-2.36,2.36
		c-1.3,0-2.36-1.06-2.36-2.36C96.41,427.68,97.47,426.62,98.77,426.62z"/>
	<path class="st4" d="M133.16,469.03v-16.08c0-1.9-1.54-3.44-3.44-3.44h-15.94c-0.81,0-1.47,0.66-1.47,1.47
		c0,0.81,0.66,1.47,1.47,1.47h15.94c0.27,0,0.49,0.22,0.49,0.49v16.08c0,0.27-0.22,0.49-0.49,0.49h-27.6
		c-0.27,0-0.49-0.22-0.49-0.49v-16.08c0-0.27,0.22-0.49,0.49-0.49h5.77c0.81,0,1.47-0.66,1.47-1.47c0-0.81-0.66-1.47-1.47-1.47
		h-5.77c-1.9,0-3.44,1.54-3.44,3.44v16.08c0,1.9,1.54,3.44,3.44,3.44h27.6C131.61,472.47,133.16,470.93,133.16,469.03z"/>
	<path class="st4" d="M123.84,477.59c-0.81,0-1.47,0.66-1.47,1.47c0,0.81,0.66,1.47,1.47,1.47h3.68c0.81,0,1.47-0.66,1.47-1.47
		c0-0.81-0.66-1.47-1.47-1.47H123.84z"/>
	<path class="st4" d="M114.08,477.59c-0.81,0-1.47,0.66-1.47,1.47c0,0.81,0.66,1.47,1.47,1.47h3.68c0.81,0,1.47-0.66,1.47-1.47
		c0-0.81-0.66-1.47-1.47-1.47H114.08z"/>
	<path class="st4" d="M104.31,477.59c-0.81,0-1.47,0.66-1.47,1.47c0,0.81,0.66,1.47,1.47,1.47h3.68c0.81,0,1.47-0.66,1.47-1.47
		c0-0.81-0.66-1.47-1.47-1.47H104.31z"/>
</g>
<circle class="st12" cx="118.59" cy="200.09" r="81.93"/>
<circle class="st13" cx="118.59" cy="200.09" r="93.02"/>
<circle class="st12" cx="723.97" cy="171.83" r="54.55"/>
<circle class="st14" cx="723.97" cy="171.83" r="64.49"/>
<circle class="st14" cx="723.97" cy="493.36" r="64.49"/>
<circle class="st12" cx="1072.55" cy="230.92" r="52.64"/>
<circle class="st14" cx="1072.55" cy="230.92" r="62.05"/>
<circle class="st12" cx="1070.07" cy="429.79" r="55.12"/>
<circle class="st13" cx="1070.07" cy="429.79" r="63.57"/>
<circle class="st12" cx="723.97" cy="493.36" r="54.55"/>
<g class="st15">
	<path class="st16" d="M168.07,189.91c-0.45-0.26-1-0.27-1.46-0.02L148.24,200v-3.52c0-3.73-3.04-6.77-6.77-6.77h-3.83
		c5.18-3.32,8.62-9.13,8.62-15.73c0-3.32-0.88-6.57-2.55-9.42c-0.41-0.7-1.31-0.94-2.02-0.53c-0.7,0.41-0.94,1.31-0.53,2.02
		c1.4,2.4,2.14,5.14,2.14,7.93c0,8.68-7.06,15.73-15.73,15.73s-15.73-7.06-15.73-15.73s7.06-15.73,15.73-15.73
		c3.69,0,7.29,1.31,10.11,3.68c0.62,0.52,1.55,0.44,2.08-0.18c0.52-0.62,0.44-1.55-0.18-2.08c-3.35-2.82-7.62-4.37-12.01-4.37
		c-9.12,0-16.74,6.57-18.36,15.23c-2.48-3.01-6.24-4.94-10.45-4.94c-7.46,0-13.53,6.07-13.53,13.53c0,4.28,2,8.1,5.12,10.59
		c-3.73,0-6.76,3.04-6.76,6.77v0.24h-6l-7.1-3.36c-0.93-0.48-2.14,0.28-2.1,1.33v18.29c-0.03,1.05,1.17,1.81,2.1,1.33l7.1-3.36h6
		v23.24c0,3.73,3.04,6.77,6.77,6.77h38.37c0.81,0,1.47-0.66,1.47-1.47c0-0.81-0.66-1.47-1.47-1.47H90.36
		c-2.11,0-3.82-1.72-3.82-3.82v-37.71c0-2.11,1.72-3.82,3.82-3.82h51.11c2.11,0,3.82,1.72,3.82,3.82v37.71
		c0,2.11-1.72,3.82-3.82,3.82h-6.84c-0.81,0-1.47,0.66-1.47,1.47s0.66,1.47,1.47,1.47h6.84c3.73,0,6.77-3.04,6.77-6.77v-11.7
		l18.37,10.11c0.94,0.55,2.22-0.2,2.18-1.29v-40.13C168.79,190.66,168.52,190.18,168.07,189.91L168.07,189.91z M71.34,197.02
		l4.45,2.11v9.42l-4.45,2.11V197.02z M78.73,208v-8.33h4.86V208H78.73z M88.18,179.12c0-5.84,4.75-10.59,10.59-10.59
		c5.84,0,10.59,4.75,10.59,10.59s-4.75,10.59-10.59,10.59C92.93,189.71,88.18,184.96,88.18,179.12z M107.19,189.71
		c1.98-1.58,3.51-3.7,4.37-6.15c1.49,2.48,3.53,4.59,5.96,6.15H107.19z M165.85,228.82l-17.61-9.69v-15.76l17.61-9.69V228.82z"/>
	<path class="st16" d="M120.06,173.97c0,4.14,3.37,7.51,7.51,7.51c4.14,0,7.51-3.37,7.51-7.51s-3.37-7.51-7.51-7.51
		S120.06,169.83,120.06,173.97z M132.14,173.97c0,2.52-2.05,4.57-4.57,4.57c-2.52,0-4.57-2.05-4.57-4.57s2.05-4.57,4.57-4.57
		C130.09,169.41,132.14,171.46,132.14,173.97z"/>
	<path class="st16" d="M98.77,184.43c2.93,0,5.31-2.38,5.31-5.31s-2.38-5.31-5.31-5.31c-2.93,0-5.31,2.38-5.31,5.31
		C93.46,182.05,95.84,184.43,98.77,184.43z M98.77,176.76c1.3,0,2.36,1.06,2.36,2.36c0,1.3-1.06,2.36-2.36,2.36
		c-1.3,0-2.36-1.06-2.36-2.36C96.41,177.82,97.47,176.76,98.77,176.76z"/>
	<path class="st16" d="M133.16,219.18V203.1c0-1.9-1.54-3.44-3.44-3.44h-15.94c-0.81,0-1.47,0.66-1.47,1.47
		c0,0.81,0.66,1.47,1.47,1.47h15.94c0.27,0,0.49,0.22,0.49,0.49v16.08c0,0.27-0.22,0.49-0.49,0.49h-27.6
		c-0.27,0-0.49-0.22-0.49-0.49V203.1c0-0.27,0.22-0.49,0.49-0.49h5.77c0.81,0,1.47-0.66,1.47-1.47c0-0.81-0.66-1.47-1.47-1.47h-5.77
		c-1.9,0-3.44,1.54-3.44,3.44v16.08c0,1.9,1.54,3.44,3.44,3.44h27.6C131.61,222.62,133.16,221.07,133.16,219.18z"/>
	<path class="st16" d="M123.84,227.74c-0.81,0-1.47,0.66-1.47,1.47c0,0.81,0.66,1.47,1.47,1.47h3.68c0.81,0,1.47-0.66,1.47-1.47
		c0-0.81-0.66-1.47-1.47-1.47H123.84z"/>
	<path class="st16" d="M114.08,227.74c-0.81,0-1.47,0.66-1.47,1.47c0,0.81,0.66,1.47,1.47,1.47h3.68c0.81,0,1.47-0.66,1.47-1.47
		c0-0.81-0.66-1.47-1.47-1.47H114.08z"/>
	<path class="st16" d="M104.31,227.74c-0.81,0-1.47,0.66-1.47,1.47c0,0.81,0.66,1.47,1.47,1.47h3.68c0.81,0,1.47-0.66,1.47-1.47
		c0-0.81-0.66-1.47-1.47-1.47H104.31z"/>
</g>
<circle class="st12" cx="118.59" cy="454.34" r="81.93"/>
<circle class="st17" cx="118.59" cy="454.34" r="93.58"/>
<circle class="st12" cx="516.11" cy="509.44" r="60.57"/>
<circle class="st14" cx="516.11" cy="509.44" r="68.88"/>
<path class="st18" d="M389.33,361.6H228.64c-10.87,0-19.67-8.81-19.67-19.67v-32.14c0-10.87,8.81-19.67,19.67-19.67h160.68
	c10.87,0,19.67,8.81,19.67,19.67v32.14C409,352.79,400.19,361.6,389.33,361.6z"/>
<path class="st18" d="M598.2,361.6H468.52c-10.87,0-19.67-8.81-19.67-19.67v-32.14c0-10.87,8.81-19.67,19.67-19.67H598.2
	c10.87,0,19.67,8.81,19.67,19.67v32.14C617.87,352.79,609.06,361.6,598.2,361.6z"/>
<path class="st18" d="M773.77,361.6h-91.68c-10.87,0-19.67-8.81-19.67-19.67v-32.14c0-10.87,8.81-19.67,19.67-19.67h91.68
	c10.87,0,19.67,8.81,19.67,19.67v32.14C793.45,352.79,784.64,361.6,773.77,361.6z"/>
<path class="st18" d="M992.05,361.6H864.37c-10.87,0-19.67-8.81-19.67-19.67v-32.14c0-10.87,8.81-19.67,19.67-19.67h127.68
	c10.87,0,19.67,8.81,19.67,19.67v32.14C1011.72,352.79,1002.91,361.6,992.05,361.6z"/>
<text transform="matrix(1 0 0 1 218.3228 337.3925)" class="st19 st20 st21">Video Encoder</text>
<text transform="matrix(1 0 0 1 455.3228 337.3925)" class="st19 st20 st21">Video Server</text>
<text transform="matrix(1 0 0 1 668.3229 337.3925)" class="st19 st20 st21">Networks</text>
<text transform="matrix(1 0 0 1 851.3229 337.3925)" class="st19 st20 st21">Relay Server</text>
<g class="st15">
	<g class="st22">
		<path class="st4" d="M547.86,486.6c0-7.7-13.7-13.73-31.2-13.73s-31.2,6.03-31.2,13.73c0,0.42,0.04,0.84,0.12,1.25h-0.12v48.67
			c0,7.7,13.7,13.73,31.2,13.73s31.2-6.03,31.2-13.73v-48.67h-0.12C547.82,487.44,547.86,487.02,547.86,486.6z M545.36,536.52
			c0,5.42-11.53,11.23-28.7,11.23c-17.17,0-28.7-5.81-28.7-11.23v-7.01c4.72,4.9,15.65,8.25,28.7,8.25c13.05,0,23.98-3.36,28.7-8.25
			V536.52z M545.36,524.04c0,5.42-11.53,11.23-28.7,11.23c-17.17,0-28.7-5.81-28.7-11.23v-7.01c4.72,4.9,15.65,8.25,28.7,8.25
			c13.05,0,23.98-3.36,28.7-8.25V524.04z M545.36,511.56c0,5.42-11.53,11.23-28.7,11.23c-17.17,0-28.7-5.81-28.7-11.23v-7.01
			c4.72,4.9,15.65,8.25,28.7,8.25c13.05,0,23.98-3.36,28.7-8.25V511.56z M545.36,499.08c0,5.42-11.53,11.23-28.7,11.23
			c-17.17,0-28.7-5.81-28.7-11.23v-7.01c4.72,4.9,15.65,8.25,28.7,8.25c13.05,0,23.98-3.36,28.7-8.25V499.08z M516.66,497.83
			c-17.17,0-28.7-5.81-28.7-11.23s11.53-11.23,28.7-11.23c17.17,0,28.7,5.81,28.7,11.23S533.83,497.83,516.66,497.83z"/>
	</g>
</g>
<g class="st15">
	<path class="st16" d="M1103.61,247.9h-7.9c2.03,0,3.68-1.65,3.69-3.69v-1.05c0-2.03-1.65-3.68-3.69-3.69h-2.56l-2.87-13.2
		c-0.3-3.25-3.03-5.74-6.29-5.76h-5.65v-1.05c0-0.12-0.02-0.25-0.06-0.36c1.02-1.07,1.71-2.4,2.01-3.85h0.16
		c1.74,0,3.16-1.42,3.16-3.16v-6.84c-0.01-6.1-4.95-11.05-11.06-11.06h-1.05c-6.1,0.01-11.05,4.95-11.06,11.06v6.84
		c0,1.74,1.42,3.16,3.16,3.16h0.16c0.3,1.45,0.99,2.78,2.01,3.85c-0.04,0.12-0.06,0.24-0.06,0.36v1.05h-5.65
		c-3.27,0.01-5.99,2.5-6.29,5.76l-2.41,11.09h-0.91c-0.3,0-0.59,0.04-0.88,0.11l-2.92-5.84c-0.26-0.52-0.89-0.73-1.41-0.47
		c-0.52,0.26-0.73,0.89-0.47,1.41l0,0l2.99,5.97c-0.64,0.68-0.99,1.58-0.99,2.51v3.16c0,2.03,1.65,3.68,3.69,3.69h-10
		c-0.58,0-1.05,0.47-1.05,1.05v4.21c0,0.58,0.47,1.05,1.05,1.05h1.05v2.11c0,0.58,0.47,1.05,1.05,1.05h58.97
		c0.58,0,1.05-0.47,1.05-1.05v-2.11h1.05c0.58,0,1.05-0.47,1.05-1.05v-4.21C1104.66,248.37,1104.19,247.9,1103.61,247.9z
		 M1092.55,241.58h3.16c0.87,0,1.58,0.71,1.58,1.58v1.05c0,0.87-0.71,1.58-1.58,1.58h-3.16c-0.87,0-1.58-0.71-1.58-1.58v-1.05
		C1090.97,242.29,1091.68,241.58,1092.55,241.58z M1081.5,212.1c0,0.58-0.47,1.05-1.05,1.05v-4.21h1.05V212.1z M1063.59,213.15
		c-0.58,0-1.05-0.47-1.05-1.05v-3.16h1.05V213.15z M1062.54,206.83v-1.58c0.01-4.94,4.01-8.95,8.95-8.95h1.05
		c4.94,0.01,8.95,4.01,8.95,8.95v1.58h-1.05v-0.53c0-0.2-0.01-0.4-0.02-0.6c-0.04-0.58-0.55-1.01-1.13-0.97
		c-0.11,0.01-0.21,0.03-0.31,0.07c-5.02,2-14.24,2.02-14.33,2.02H1062.54z M1065.7,213.68v-4.75c2.38-0.06,8.27-0.34,12.64-1.66
		v6.42c0,3.2-2.59,5.79-5.79,5.79h-1.05C1068.29,219.47,1065.7,216.87,1065.7,213.68z M1076.23,220.66v0.92
		c0,1.74-1.89,3.16-4.21,3.16s-4.21-1.42-4.21-3.16v-0.92c1.13,0.6,2.4,0.92,3.69,0.92h1.05
		C1073.83,221.58,1075.1,221.26,1076.23,220.66L1076.23,220.66z M1055.83,226.66c0.01-0.05,0.02-0.1,0.02-0.14
		c0.18-2.19,2-3.88,4.2-3.89h5.78c0.59,2.4,3.14,4.21,6.19,4.21s5.6-1.81,6.19-4.21h5.78c2.2,0.01,4.02,1.7,4.2,3.89
		c0,0.05,0.01,0.1,0.02,0.14l2.85,13.13c-1.33,0.59-2.2,1.91-2.2,3.37v1.05c0,2.03,1.65,3.68,3.69,3.69h-4.74v-16.32
		c0-2.03-1.65-3.68-3.69-3.69h-24.22c-2.03,0-3.68,1.65-3.69,3.69v16.32h-4.74c2.03,0,3.68-1.65,3.69-3.69v-3.16
		c0-1.29-0.68-2.49-1.79-3.16L1055.83,226.66z M1085.71,231.58v16.32h-27.38v-16.32c0-0.87,0.71-1.58,1.58-1.58h24.22
		C1085,230,1085.71,230.71,1085.71,231.58z M1048.85,244.22v-3.16c0-0.87,0.71-1.58,1.58-1.58h1.05c0.87,0,1.58,0.71,1.58,1.58v3.16
		c0,0.87-0.71,1.58-1.58,1.58h-1.05C1049.56,245.79,1048.85,245.09,1048.85,244.22z M1100.45,255.27h-56.86v-1.05h56.86V255.27z
		 M1102.56,252.11h-61.08v-2.11h61.08V252.11z"/>
	<path class="st16" d="M1072.02,236.32c-2.33,0-4.21,1.89-4.21,4.21s1.89,4.21,4.21,4.21s4.21-1.89,4.21-4.21
		C1076.23,238.21,1074.34,236.32,1072.02,236.32z M1072.02,242.64c-1.16,0-2.11-0.94-2.11-2.11s0.94-2.11,2.11-2.11
		s2.11,0.94,2.11,2.11C1074.12,241.69,1073.18,242.64,1072.02,242.64z"/>
	<circle class="st16" cx="1068.86" cy="211.05" r="1.05"/>
	<circle class="st16" cx="1075.18" cy="211.05" r="1.05"/>
	<path class="st16" d="M1070.97,217.36h2.11c0.58,0,1.05-0.47,1.05-1.05c0-0.58-0.47-1.05-1.05-1.05h-2.11
		c-0.58,0-1.05,0.47-1.05,1.05C1069.91,216.89,1070.38,217.36,1070.97,217.36z"/>
</g>
<g class="st23">
	<g class="st22">
		<line class="st8" x1="112.23" y1="282.02" x2="112.23" y2="284.52"/>
		<line class="st9" x1="112.23" y1="289.54" x2="112.23" y2="367.4"/>
		<line class="st8" x1="112.23" y1="369.91" x2="112.23" y2="372.41"/>
	</g>
</g>
<polyline class="st24" points="168.8,292.97 205.97,327.21 164.98,361.6 "/>
<g class="st23">
	<g class="st22">
		<line class="st8" x1="410.16" y1="327.21" x2="445.4" y2="327.21"/>
		<g>
			<polygon class="st4" points="441.42,330.6 444.81,327.21 441.42,323.82 444.3,323.82 447.69,327.21 444.3,330.6 			"/>
		</g>
	</g>
</g>
<g class="st23">
	<g class="st22">
		<line class="st8" x1="621.38" y1="327.21" x2="656.62" y2="327.21"/>
		<g>
			<polygon class="st4" points="652.64,330.6 656.03,327.21 652.64,323.82 655.52,323.82 658.91,327.21 655.52,330.6 			"/>
		</g>
	</g>
</g>
<line class="st25" x1="516" y1="443.02" x2="516" y2="364.49"/>
<g class="st23">
	<g class="st22">
		<line class="st8" x1="800.3" y1="327.21" x2="835.55" y2="327.21"/>
		<g>
			<polygon class="st4" points="831.57,330.6 834.96,327.21 831.57,323.82 834.45,323.82 837.84,327.21 834.45,330.6 			"/>
		</g>
	</g>
</g>
<g class="st23">
	<text transform="matrix(1 0 0 1 471.4209 612.0411)" class="st22"><tspan x="0" y="0" class="st11 st20 st26">Video</tspan><tspan x="-16.04" y="24.8" class="st11 st20 st26">Storage</tspan></text>
</g>
<g class="st23">
	<text transform="matrix(1 0 0 1 38.4053 94.6598)" class="st27 st20 st26">Video Input</text>
</g>
<g class="st23">
	<text transform="matrix(1 0 0 1 653.7463 96.8935)" class="st27 st20 st26">End-User</text>
</g>
<g class="st23">
	<text transform="matrix(1 0 0 1 1000.7423 154.5318)" class="st27 st20 st26">End-User</text>
</g>
<g class="st23">
	<text transform="matrix(1 0 0 1 656.7463 595.319)" class="st27 st20 st26">End-User</text>
</g>
<g class="st23">
	<text transform="matrix(1 0 0 1 1001.3236 530.3354)" class="st27 st20 st26">End-User</text>
</g>
<line class="st25" x1="1072.55" y1="293.85" x2="1072.55" y2="370.39"/>
<line class="st24" x1="1012.34" y1="327.21" x2="1072.4" y2="327.21"/>
<line class="st25" x1="723.97" y1="234.77" x2="723.97" y2="283.21"/>
<line class="st25" x1="723.97" y1="366.53" x2="723.97" y2="430.98"/>
<g class="st23">
	<path class="st16" d="M749.85,165.32L749.85,165.32l-22.21-22.21c-1.22-1.22-2.95-1.73-4.71-1.34c-0.94,0.21-1.78,0.74-2.46,1.42
		l-22.11,22.11l-0.03,0.03c-1.38,1.4-1.89,3.5-1.15,5.31c0.81,1.96,2.55,3.14,4.49,3.22c0.05,0,0.1,0.01,0.15,0.01h0.88v16.34
		c0,3.24,2.63,5.87,5.87,5.87h8.69c0.88,0,1.6-0.72,1.6-1.6v-12.81c0-1.48,1.2-2.68,2.68-2.68h5.12c1.48,0,2.68,1.2,2.68,2.68v12.81
		c0,0.88,0.72,1.6,1.6,1.6h8.69c3.24,0,5.87-2.63,5.87-5.87v-16.34h0.82c1.97,0,3.78-1.13,4.66-3.1
		C751.8,168.93,751.28,166.75,749.85,165.32z M748.09,169.31c-0.27,0.86-0.99,1.37-1.79,1.37h-2.41c-0.88,0-1.6,0.72-1.6,1.6v17.94
		c0,1.48-1.2,2.68-2.68,2.68h-7.09c0,0,0,0,0,0v-11.21c0-3.24-2.63-5.87-5.87-5.87h-5.12c-3.24,0-5.87,2.63-5.87,5.87v11.21
		c0,0,0,0,0,0h-7.09c-1.48,0-2.68-1.2-2.68-2.68v-17.93c0-0.88-0.72-1.6-1.6-1.6h-2.37c-0.02,0-0.05,0-0.07,0
		c-0.79-0.01-1.51-0.53-1.75-1.39c-0.17-0.61,0.05-1.27,0.5-1.72l0,0l0,0l22.21-22.21c0.34-0.34,0.8-0.53,1.29-0.53
		c0.49,0,0.94,0.19,1.29,0.53l22.2,22.2l0.01,0.01C748.06,168.02,748.29,168.7,748.09,169.31z"/>
</g>
<g class="st23">
	<g class="st22">
		<g>
			<path class="st4" d="M708.05,483.2c-1.4-1.45-3.33-2.26-5.34-2.25h-0.38c-2.01,0-3.94,0.81-5.33,2.25
				c-1.32,1.35-2.01,3.19-1.93,5.07l0.15,3.35c0.22,3.83,3.43,6.81,7.26,6.74h0.09c3.84,0.07,7.04-2.91,7.26-6.74l0.15-3.35
				C710.06,486.39,709.36,484.56,708.05,483.2z M707.34,491.52c-0.17,2.5-2.28,4.42-4.78,4.35h-0.09c-2.5,0.06-4.61-1.86-4.78-4.35
				l-0.04-1.02c2.37-0.11,4.65-0.96,6.5-2.44c0.76,1.13,1.92,1.94,3.24,2.27L707.34,491.52z M705.78,485.64
				c-0.07-0.53-0.47-0.96-1-1.06c-0.52-0.11-1.06,0.13-1.32,0.6c-0.02,0.03-1.56,2.47-5.92,2.84c-0.01-1.15,0.43-2.26,1.23-3.09
				c0.93-0.96,2.21-1.5,3.54-1.49h0.38c1.33,0,2.61,0.54,3.54,1.49c0.73,0.76,1.16,1.75,1.21,2.79
				C706.6,487.34,705.98,486.56,705.78,485.64z"/>
		</g>
	</g>
	<g class="st22">
		<g>
			<path class="st4" d="M727.26,485.36c-1.33-1.29-3.45-1.29-4.79,0l-13.89,13.89c-0.23,0.23-0.55,0.36-0.88,0.36h-12.65
				c-3.43,0-6.21,2.79-6.22,6.22v17.41c0,2.06,1.67,3.73,3.73,3.73c0.42,0,0.84-0.07,1.24-0.21v1.46c0,0.69,0.56,1.24,1.24,1.24
				h14.93c0.69,0,1.24-0.56,1.24-1.24v-20.17c0-0.31,0.12-0.62,0.33-0.85l15.78-16.97C728.66,488.86,728.62,486.68,727.26,485.36z
				 M725.56,488.48c0,0-0.01,0.01-0.01,0.01l-15.82,17.01c-0.64,0.69-1,1.6-0.99,2.54v18.92H696.3v-18.66
				c0-0.69-0.56-1.24-1.24-1.24s-1.24,0.56-1.24,1.24v14.93c0,0.69-0.56,1.24-1.24,1.24c-0.69,0-1.24-0.56-1.24-1.24v-17.41
				c0-2.06,1.67-3.73,3.73-3.73h12.65c0.99,0,1.94-0.39,2.64-1.09l13.89-13.89c0.38-0.36,0.97-0.36,1.35,0
				C725.95,487.5,725.94,488.11,725.56,488.48z"/>
		</g>
	</g>
	<g class="st22">
		<g>
			<path class="st4" d="M702.52,503.34c-0.69,0-1.24,0.56-1.24,1.24v14.93c0,0.69,0.56,1.24,1.24,1.24c0.69,0,1.24-0.56,1.24-1.24
				v-14.93C703.76,503.89,703.2,503.34,702.52,503.34z"/>
		</g>
	</g>
	<g class="st22">
		<g>
			<path class="st4" d="M759.79,467.27h-43.66c-2.04,0.02-3.68,1.69-3.67,3.73v18.66c0,0.69,0.56,1.24,1.24,1.24
				c0.69,0,1.24-0.56,1.24-1.24v-14.93h46.02v29.85c0.02,0.67-0.51,1.23-1.18,1.24h-42.44c-0.69,0-1.24,0.56-1.24,1.24
				c0,0.69,0.56,1.24,1.24,1.24h42.44c2.04-0.02,3.68-1.69,3.67-3.73V471C763.47,468.96,761.83,467.29,759.79,467.27z
				 M760.97,472.24h-46.02V471c-0.02-0.67,0.51-1.23,1.18-1.24h43.66c0.67,0.02,1.2,0.57,1.18,1.24V472.24z"/>
		</g>
	</g>
	<g class="st22">
		<g>
			<path class="st4" d="M757.24,483.13c-0.69,0-1.24,0.56-1.24,1.24v17.72c0,0.69,0.56,1.24,1.24,1.24s1.24-0.56,1.24-1.24v-17.72
				C758.48,483.68,757.93,483.13,757.24,483.13z"/>
		</g>
	</g>
	<g class="st22">
		<g>
			<path class="st4" d="M752.27,490.9c-0.69,0-1.24,0.56-1.24,1.24v9.95c0,0.69,0.56,1.24,1.24,1.24c0.69,0,1.24-0.56,1.24-1.24
				v-9.95C753.51,491.46,752.95,490.9,752.27,490.9z"/>
		</g>
	</g>
	<g class="st22">
		<g>
			<path class="st4" d="M747.29,488.41c-0.69,0-1.24,0.56-1.24,1.24v12.44c0,0.69,0.56,1.24,1.24,1.24s1.24-0.56,1.24-1.24v-12.44
				C748.53,488.97,747.98,488.41,747.29,488.41z"/>
		</g>
	</g>
	<g class="st22">
		<g>
			<path class="st4" d="M742.32,495.87c-0.69,0-1.24,0.56-1.24,1.24v4.98c0,0.69,0.56,1.24,1.24,1.24c0.69,0,1.24-0.56,1.24-1.24
				v-4.98C743.56,496.43,743,495.87,742.32,495.87z"/>
		</g>
	</g>
	<g class="st22">
		<g>
			<path class="st4" d="M757.93,477.43c-0.57-0.38-1.34-0.23-1.73,0.34l-4.25,6.37l-3.92-2.94c-0.55-0.41-1.33-0.31-1.74,0.24
				c-0.05,0.06-0.09,0.13-0.12,0.2l-4.84,9.69l-4.73,3.55c-0.55,0.41-0.66,1.19-0.25,1.74c0.41,0.55,1.19,0.66,1.74,0.25l4.98-3.73
				c0.16-0.12,0.28-0.27,0.37-0.44l4.31-8.62l3.78,2.84c0.55,0.41,1.33,0.3,1.74-0.25c0.01-0.02,0.03-0.04,0.04-0.06l4.98-7.46
				C758.66,478.58,758.5,477.81,757.93,477.43z"/>
		</g>
	</g>
	<g class="st22">
		<g>
			<path class="st4" d="M733.61,477.22h-14.93c-0.69,0-1.24,0.56-1.24,1.24c0,0.69,0.56,1.24,1.24,1.24h14.93
				c0.69,0,1.24-0.56,1.24-1.24C734.85,477.77,734.3,477.22,733.61,477.22z"/>
		</g>
	</g>
	<g class="st22">
		<g>
			<path class="st4" d="M741.07,477.22h-2.49c-0.69,0-1.24,0.56-1.24,1.24c0,0.69,0.56,1.24,1.24,1.24h2.49
				c0.69,0,1.24-0.56,1.24-1.24C742.32,477.77,741.76,477.22,741.07,477.22z"/>
		</g>
	</g>
</g>
<g class="st23">
	<path class="st16" d="M1100.5,439.85h-0.47v-4.68l6.06-19.17c0.25-0.79-0.19-1.64-0.98-1.89c-0.79-0.25-1.64,0.19-1.89,0.98
		l-5.8,18.34h-11.66c-1.44-0.9-3.13-1.42-4.95-1.42c-4.44,0-9.94,0.93-13.23-2.75l-3.34-3.72v-2.02c0-1.66-1.13-3.07-2.66-3.5v-0.75
		c2.7-0.22,4.82-2.48,4.82-5.23v-8.23c2.65-0.74,4.37-3.48,3.84-6.19c-0.49-2.54-2.83-4.4-5.4-4.4h-11.23
		c-4.86,0-8.82,3.96-8.82,8.82c0,1.43-0.2,2.86-0.59,4.24l-1.64,5.8c-0.72,2.57,1.27,5.2,3.93,5.2h3.55l-0.1,0.6
		c-3.3-0.03-6.2,2.25-6.55,5.63l-2.67,26.09c-0.13,1.35-0.32,2.66-0.18,4.02c0.28,2.57,1.5,4.98,3.37,6.76l3.05,1.71
		c0.82,0.46,1.73,0.71,2.67,0.75l16.19,0.55c0.85,0,1.53-0.7,1.5-1.55c-0.02-0.82-0.74-1.46-1.57-1.46h-14.29
		c-4.94,0-8.38-4.36-7.9-9.11h27.75l3.01-3.49c0,0,26.67-0.22,27.65-0.19v-8.23C1102,440.53,1101.33,439.85,1100.5,439.85z
		 M1097.02,436.44v3.41h-6.98c-0.2-1.24-0.64-2.39-1.28-3.41H1097.02z M1082.32,435.2c2.29,0.56,4.1,2.37,4.66,4.66h-4.66V435.2z
		 M1063.41,414.04c0,1.24-1.01,2.24-2.24,2.24h-1.08c-0.83,0-1.5,0.67-1.5,1.5v2.1h-5.57l0.13-0.77c1.65-0.5,2.85-2.03,2.85-3.83
		v-8.42c0-0.47,0.38-0.85,0.85-0.85h6.56V414.04z M1046.51,416.29c-0.34,0-0.65-0.16-0.86-0.43c-0.21-0.27-0.27-0.62-0.18-0.95
		l1.64-5.8c0.47-1.65,0.7-3.35,0.7-5.07c0-3.2,2.61-5.81,5.81-5.81h11.23c3.1,0,3.25,4.77,0.1,4.77h-8.12
		c-2.13,0-3.86,1.73-3.86,3.86v8.42c0,0.55-0.45,1-1,1H1046.51z M1071.35,450.26h-7.1v-8.56c2.28,1.12,4.63,1.16,7.1,1.16V450.26z
		 M1069.22,439.85c-5.04,0-7.94-4.82-10.86-8.24c-0.54-0.63-1.49-0.7-2.12-0.16c-0.63,0.54-0.7,1.49-0.16,2.12
		c1.7,1.99,3.32,4.12,5.17,5.98v10.72h-17.33l2.5-24.44c0.17-1.67,1.56-2.93,3.24-2.93h2.01c-0.81,1.52-0.89,3.31-0.21,4.88
		c0.33,0.76,1.22,1.11,1.98,0.78c0.76-0.33,1.11-1.22,0.78-1.98c-1.17-2.68,2.49-4.97,4.42-2.8l6.72,7.49
		c2.24,2.5,5.39,3.74,8.71,3.75c1.75,0.01,3.5,0,5.26,0v4.84L1069.22,439.85z M1099,446.77h-24.64v-3.91l24.64,0V446.77z"/>
</g>
<g class="st15">
	<path class="st16" d="M168.07,439.77c-0.45-0.26-1-0.27-1.46-0.02l-18.37,10.11v-3.52c0-3.73-3.04-6.77-6.77-6.77h-3.83
		c5.18-3.32,8.62-9.13,8.62-15.73c0-3.32-0.88-6.57-2.55-9.42c-0.41-0.7-1.31-0.94-2.02-0.53c-0.7,0.41-0.94,1.31-0.53,2.02
		c1.4,2.4,2.14,5.14,2.14,7.93c0,8.68-7.06,15.73-15.73,15.73s-15.73-7.06-15.73-15.73c0-8.68,7.06-15.73,15.73-15.73
		c3.69,0,7.29,1.31,10.11,3.68c0.62,0.52,1.55,0.44,2.08-0.18c0.52-0.62,0.44-1.55-0.18-2.08c-3.35-2.82-7.62-4.37-12.01-4.37
		c-9.12,0-16.74,6.57-18.36,15.23c-2.48-3.01-6.24-4.94-10.45-4.94c-7.46,0-13.53,6.07-13.53,13.53c0,4.28,2,8.1,5.12,10.59
		c-3.73,0-6.76,3.04-6.76,6.77v0.24h-6l-7.1-3.36c-0.93-0.48-2.14,0.28-2.1,1.33v18.29c-0.03,1.05,1.17,1.81,2.1,1.33l7.1-3.36h6
		v23.24c0,3.73,3.04,6.77,6.77,6.77h38.37c0.81,0,1.47-0.66,1.47-1.47c0-0.81-0.66-1.47-1.47-1.47H90.36
		c-2.11,0-3.82-1.72-3.82-3.82v-37.71c0-2.11,1.72-3.82,3.82-3.82h51.11c2.11,0,3.82,1.72,3.82,3.82v37.71
		c0,2.11-1.72,3.82-3.82,3.82h-6.84c-0.81,0-1.47,0.66-1.47,1.47c0,0.81,0.66,1.47,1.47,1.47h6.84c3.73,0,6.77-3.04,6.77-6.77v-11.7
		l18.37,10.11c0.94,0.55,2.22-0.2,2.18-1.29v-40.13C168.79,440.52,168.52,440.03,168.07,439.77L168.07,439.77z M71.34,446.87
		l4.45,2.11v9.42l-4.45,2.11V446.87z M78.73,457.86v-8.33h4.86v8.33H78.73z M88.18,428.98c0-5.84,4.75-10.59,10.59-10.59
		c5.84,0,10.59,4.75,10.59,10.59s-4.75,10.59-10.59,10.59C92.93,439.56,88.18,434.81,88.18,428.98z M107.19,439.56
		c1.98-1.58,3.51-3.7,4.37-6.15c1.49,2.48,3.53,4.59,5.96,6.15H107.19z M165.85,478.68l-17.61-9.69v-15.76l17.61-9.69V478.68z"/>
	<path class="st16" d="M120.06,423.83c0,4.14,3.37,7.51,7.51,7.51c4.14,0,7.51-3.37,7.51-7.51s-3.37-7.51-7.51-7.51
		S120.06,419.69,120.06,423.83z M132.14,423.83c0,2.52-2.05,4.57-4.57,4.57c-2.52,0-4.57-2.05-4.57-4.57c0-2.52,2.05-4.57,4.57-4.57
		C130.09,419.26,132.14,421.31,132.14,423.83z"/>
	<path class="st16" d="M98.77,434.29c2.93,0,5.31-2.38,5.31-5.31s-2.38-5.31-5.31-5.31c-2.93,0-5.31,2.38-5.31,5.31
		C93.46,431.91,95.84,434.29,98.77,434.29z M98.77,426.62c1.3,0,2.36,1.06,2.36,2.36c0,1.3-1.06,2.36-2.36,2.36
		c-1.3,0-2.36-1.06-2.36-2.36C96.41,427.68,97.47,426.62,98.77,426.62z"/>
	<path class="st16" d="M133.16,469.03v-16.08c0-1.9-1.54-3.44-3.44-3.44h-15.94c-0.81,0-1.47,0.66-1.47,1.47
		c0,0.81,0.66,1.47,1.47,1.47h15.94c0.27,0,0.49,0.22,0.49,0.49v16.08c0,0.27-0.22,0.49-0.49,0.49h-27.6
		c-0.27,0-0.49-0.22-0.49-0.49v-16.08c0-0.27,0.22-0.49,0.49-0.49h5.77c0.81,0,1.47-0.66,1.47-1.47c0-0.81-0.66-1.47-1.47-1.47
		h-5.77c-1.9,0-3.44,1.54-3.44,3.44v16.08c0,1.9,1.54,3.44,3.44,3.44h27.6C131.61,472.47,133.16,470.93,133.16,469.03z"/>
	<path class="st16" d="M123.84,477.59c-0.81,0-1.47,0.66-1.47,1.47c0,0.81,0.66,1.47,1.47,1.47h3.68c0.81,0,1.47-0.66,1.47-1.47
		c0-0.81-0.66-1.47-1.47-1.47H123.84z"/>
	<path class="st16" d="M114.08,477.59c-0.81,0-1.47,0.66-1.47,1.47c0,0.81,0.66,1.47,1.47,1.47h3.68c0.81,0,1.47-0.66,1.47-1.47
		c0-0.81-0.66-1.47-1.47-1.47H114.08z"/>
	<path class="st16" d="M104.31,477.59c-0.81,0-1.47,0.66-1.47,1.47c0,0.81,0.66,1.47,1.47,1.47h3.68c0.81,0,1.47-0.66,1.47-1.47
		c0-0.81-0.66-1.47-1.47-1.47H104.31z"/>
</g>
</svg>
